<svg xmlns="http://www.w3.org/2000/svg" width="5209" height="5209" viewBox="0 0 5209 5209" version="1.1">
	<path d="M 3104.019 699.047 C 3040.282 703.021, 2979.897 715.266, 2923.764 735.600 C 2857.717 759.524, 2796.489 794.697, 2741.945 840.047 C 2726.157 853.173, 2686.577 892.652, 2672.814 909 C 2613 980.050, 2571.011 1062.290, 2548.029 1153.410 L 2543.260 1172.320 2483.391 1193.643 C 2450.464 1205.370, 2422.393 1215.808, 2421.012 1216.837 C 2419.630 1217.867, 2417.600 1220.237, 2416.500 1222.105 C 2414.712 1225.140, 2414.466 1227.648, 2414.176 1245.775 L 2413.852 1266.050 2394.860 1246.564 C 2312.461 1162.021, 2224.819 1101.186, 2115.934 1052.953 C 1953.510 981.003, 1795.528 961.495, 1679.505 999.061 C 1624.739 1016.794, 1581.409 1043.503, 1540.009 1085.049 C 1474.498 1150.790, 1437.753 1227.991, 1443.015 1288.832 C 1446.339 1327.257, 1462.949 1355.710, 1494.479 1376.986 C 1518.292 1393.055, 1547.169 1404.161, 1611.500 1421.992 C 1674.300 1439.399, 1712.659 1451.794, 1707.878 1453.134 C 1706.570 1453.501, 1703.407 1453.845, 1700.849 1453.900 C 1692.467 1454.080, 1672.911 1457.947, 1662.114 1461.560 C 1656.291 1463.509, 1641.845 1469.760, 1630.013 1475.453 C 1618.181 1481.145, 1605.350 1486.918, 1601.500 1488.282 C 1586.006 1493.773, 1566.131 1496.097, 1552.500 1494.013 C 1532.985 1491.030, 1438.034 1456.633, 1367.737 1427.081 C 1344.362 1417.255, 1334.780 1416.138, 1316.209 1421.077 C 1295.713 1426.528, 1278.842 1440.326, 1254.553 1471.500 C 1230.093 1502.893, 1219.948 1515.026, 1208.995 1525.987 C 1174.377 1560.631, 1134.219 1579.085, 1090 1580.669 C 1065.304 1581.554, 1048.362 1578.509, 1005.198 1565.429 C 967.951 1554.142, 950.701 1551.229, 931.740 1553.026 C 913.692 1554.736, 900.145 1559.703, 883.736 1570.627 C 821.570 1612.013, 786.624 1719.160, 802.097 1820.946 C 816.144 1913.356, 871.700 1988.096, 957.500 2030.008 C 990.129 2045.947, 1021.121 2055.287, 1059.182 2060.653 C 1076.682 2063.120, 1118.961 2063.134, 1135 2060.678 C 1174.280 2054.664, 1202.570 2043.089, 1226 2023.447 C 1235.071 2015.842, 1241.947 2008.759, 1257.496 1991 C 1270.365 1976.302, 1287.528 1958.404, 1290.141 1956.955 C 1291.333 1956.295, 1291.012 1957.479, 1288.971 1961.273 C 1287.424 1964.148, 1283.587 1972.350, 1280.444 1979.500 C 1277.300 1986.650, 1269.953 2001.592, 1264.117 2012.704 C 1255.429 2029.246, 1253.052 2033.020, 1251.003 2033.529 C 1245.161 2034.979, 1225.035 2043.415, 1214.031 2049.025 C 1190.715 2060.912, 1169.269 2076.673, 1149.472 2096.471 C 1103.066 2142.879, 1069.399 2210.693, 1054.632 2287.500 C 1048.734 2318.175, 1047.560 2331.761, 1047.542 2369.500 C 1047.528 2400.287, 1047.796 2406.468, 1049.768 2420.852 C 1051.902 2436.416, 1058.025 2467.306, 1060.012 2472.533 C 1060.681 2474.292, 1060.264 2478.010, 1058.530 2485.741 C 1052.798 2511.298, 1048.208 2543.499, 1045.879 2574.500 C 1044.305 2595.449, 1044.305 2673.633, 1045.879 2700.500 C 1052.427 2812.254, 1068.870 2908.379, 1095.229 2989 C 1118.017 3058.700, 1146.092 3110.490, 1180.879 3147 C 1185.334 3151.675, 1188.983 3155.779, 1188.989 3156.119 C 1189.016 3157.659, 1177.706 3183.917, 1162.680 3217.198 C 1132.806 3283.366, 1123.219 3310.571, 1118.560 3342.395 C 1114.895 3367.423, 1113.028 3454.877, 1113.012 3602.305 L 1113 3703.111 1118.967 3705.805 L 1124.934 3708.500 1124.967 3743.750 L 1125 3779 1122.434 3779 C 1117.949 3779, 1116.244 3780.754, 1113.941 3787.740 C 1109.930 3799.902, 1098.016 3831.204, 1091.952 3845.509 L 1086.014 3859.518 904.757 3925.879 C 805.066 3962.377, 721.250 3993.299, 718.500 3994.594 C 706.357 4000.314, 696.589 4011.226, 692.381 4023.772 C 690.452 4029.522, 689.752 4030.546, 687.562 4030.816 L 685 4031.133 685.020 4109.816 C 685.032 4157.251, 685.440 4191.268, 686.047 4195.469 C 688.586 4213.036, 700.616 4227.738, 716.876 4233.144 C 721.651 4234.731, 2230.857 4503.432, 2258 4507.527 C 2291.348 4512.559, 2329.339 4511.073, 2364 4503.383 C 2377.187 4500.457, 2399.826 4493.287, 2410.921 4488.524 C 2415.089 4486.734, 2561.700 4420.409, 2736.723 4341.135 C 2911.745 4261.861, 3055.118 4197, 3055.329 4197 C 3055.540 4197, 3056.021 4201.163, 3056.397 4206.250 C 3058.617 4236.273, 3070.939 4272.012, 3088.032 4298 C 3097.198 4311.936, 3102.283 4318.305, 3113.470 4329.860 C 3146.594 4364.074, 3189.070 4385.234, 3236.309 4391.053 C 3242.709 4391.842, 3253.480 4392.071, 3267.309 4391.712 C 3284.906 4391.255, 3290.607 4390.717, 3300.924 4388.538 C 3378.196 4372.220, 3439.223 4315.128, 3458.978 4240.675 C 3465.328 4216.745, 3465.327 4216.762, 3465.745 4143.179 C 3466.034 4092.251, 3465.838 4075.510, 3464.941 4074.429 C 3463.994 4073.288, 3460.154 4073, 3445.878 4073 C 3436.045 4073, 3428 4072.816, 3428 4072.592 C 3428 4072.368, 3430.857 4067.912, 3434.348 4062.689 C 3443.141 4049.539, 3446.778 4038.793, 3448.252 4021.615 C 3448.496 4018.779, 3457.674 4014.574, 3976.823 3779.450 C 4267.401 3647.846, 4506.953 3538.918, 4509.162 3537.388 C 4517.956 3531.293, 4525.019 3520.446, 4527.002 3509.988 C 4527.557 3507.065, 4527.970 3471.824, 4527.988 3425.976 C 4528.015 3356.659, 4527.836 3347, 4526.528 3347 C 4525.709 3347, 4524.764 3345.762, 4524.429 3344.250 C 4520.160 3324.969, 4507.556 3310.652, 4490 3305.143 C 4487.042 3304.214, 4019.432 3234, 4016.208 3234 C 4015.408 3234, 4014.998 3216.274, 4014.743 3170.750 C 4014.352 3100.859, 4014.645 3104.207, 4007.617 3089.409 C 4003.065 3079.824, 3999.021 3074.021, 3992 3067 C 3982.220 3057.220, 3968.906 3049.455, 3956.957 3046.564 C 3953.406 3045.704, 3698.275 3013.233, 3390 2974.406 C 3081.725 2935.579, 2829.430 2903.741, 2829.344 2903.656 C 2829.258 2903.570, 2830.483 2896.525, 2832.065 2888 C 2840.144 2844.488, 2847.943 2780.199, 2847.987 2756.750 C 2847.997 2751.386, 2848.312 2750, 2849.518 2750 C 2850.354 2750, 3097.516 2781.120, 3398.768 2819.155 C 3803.238 2870.222, 3949.116 2888.304, 3956.500 2888.290 C 3964.653 2888.273, 3967.946 2887.779, 3974.328 2885.616 C 3990.954 2879.979, 4003.489 2868.691, 4010.007 2853.484 C 4015.248 2841.257, 4015.081 2848.676, 4014.757 2642.500 C 4014.482 2467.723, 4014.315 2451.046, 4012.793 2446.153 C 4008.069 2430.966, 3997.831 2415.222, 3986.702 2406.028 C 3979.154 2399.793, 3964.801 2392.516, 3956 2390.463 C 3952.425 2389.628, 3657.085 2352.106, 3299.689 2307.079 C 2942.294 2262.052, 2649.633 2224.966, 2649.333 2224.666 C 2647.576 2222.910, 2637.148 2182.913, 2633.083 2162.338 C 2625.728 2125.116, 2623.504 2101.280, 2623.534 2060 C 2623.564 2020.350, 2624.558 2007.809, 2633.008 1940.500 C 2642.744 1862.949, 2643.373 1854.902, 2643.441 1807 L 2643.500 1765.500 2650.500 1772.339 C 2663.739 1785.274, 2685.997 1801.749, 2703.327 1811.440 C 2710.300 1815.340, 2711.487 1816.452, 2722.604 1829.500 C 2745.834 1856.767, 2782.106 1893.679, 2807.500 1915.896 C 2930.282 2023.316, 3073.601 2090.028, 3225.500 2110.466 C 3261.031 2115.246, 3279.876 2116.428, 3320.500 2116.423 C 3366.144 2116.417, 3391.004 2114.481, 3430.428 2107.866 C 3620.325 2076, 3778.480 1962.047, 3864.960 1794.778 C 3902.017 1723.102, 3923.876 1647.533, 3932.582 1561 C 3934.778 1539.178, 3935.636 1476.297, 3934.073 1451.711 C 3925.876 1322.710, 3885.196 1199.226, 3812.785 1083.545 C 3740.482 968.034, 3637.382 868.922, 3518.860 800.989 C 3418.909 743.700, 3314.051 710.543, 3201 700.480 C 3180.022 698.612, 3124.212 697.788, 3104.019 699.047 M 4252 838.487 C 4149.425 876.089, 4064.825 907.270, 4064 907.779 C 4060.366 910.021, 4062.207 916, 4066.532 916 C 4068.938 916, 4442.864 779.410, 4444.375 777.979 C 4445.742 776.684, 4445.402 771.869, 4443.875 770.902 C 4443.119 770.423, 4441.600 770.051, 4440.500 770.076 C 4439.400 770.101, 4354.575 800.886, 4252 838.487 M 3906.500 965.045 C 3847.665 986.614, 3852.198 984.800, 3851.478 987.070 C 3850.532 990.051, 3852.714 993, 3855.865 993 C 3858.893 993, 3958.205 956.904, 3960.565 954.946 C 3963.676 952.364, 3961.615 946.960, 3957.550 947.040 C 3956.423 947.063, 3933.450 955.165, 3906.500 965.045 M 1764.584 991.549 C 1675.163 1000.769, 1607.097 1032.007, 1547.929 1090.981 C 1516.797 1122.010, 1493.988 1153.056, 1477.018 1187.500 C 1450.642 1241.035, 1445.396 1285.863, 1461.095 1323.573 C 1472.230 1350.320, 1496.960 1371.575, 1535.518 1387.536 C 1554.724 1395.486, 1571.254 1400.717, 1621 1414.586 C 1677.784 1430.418, 1700.911 1437.978, 1729.531 1450.063 C 1738.348 1453.786, 1748.473 1457.359, 1752.031 1458.003 C 1763.174 1460.018, 1811.854 1470.908, 1826.500 1474.661 C 1868.307 1485.373, 1879.562 1494.617, 1879.273 1518 C 1879.144 1528.503, 1876.648 1536.973, 1869.805 1550.131 L 1864.796 1559.763 1870.881 1570.631 C 1883.330 1592.869, 1891.301 1616.706, 1894.413 1641 C 1895.223 1647.325, 1896.379 1661.725, 1896.981 1673 C 1898.341 1698.431, 1899.568 1710.540, 1902.142 1723.945 C 1913.801 1784.664, 1962.409 1848.483, 2025.805 1886.308 C 2052.128 1902.013, 2074.002 1911.886, 2127.209 1932.077 C 2186.672 1954.642, 2206.274 1964.412, 2226.393 1981.510 C 2247.825 1999.724, 2262 2030.027, 2262 2057.631 C 2262 2061.142, 2262.442 2064, 2262.984 2064 C 2265.993 2064, 2290.571 2058.225, 2303.500 2054.480 C 2343.648 2042.850, 2387.291 2024.082, 2421.304 2003.819 C 2428.522 1999.519, 2434.989 1996, 2435.674 1996 C 2436.359 1996, 2439.732 1997.778, 2443.170 1999.952 L 2449.420 2003.904 2452.960 2001.798 C 2459.696 1997.790, 2459.670 1997.867, 2457.092 1989.763 C 2455.821 1985.768, 2450.509 1970.575, 2445.286 1956 C 2388.862 1798.539, 2318.600 1657.275, 2233.699 1530.600 C 2130.213 1376.195, 2006.367 1247.817, 1880.500 1164.476 C 1863.086 1152.945, 1853.099 1146.872, 1828 1132.550 C 1822.283 1129.288, 1820.665 1126.314, 1823.046 1123.445 C 1825.026 1121.058, 1827.872 1121.753, 1837.769 1127.041 C 1881.068 1150.177, 1941.871 1193.790, 1993 1238.388 C 2027.625 1268.589, 2074.934 1315.248, 2105.161 1349.008 C 2220.921 1478.297, 2318.088 1631.188, 2396.160 1806.892 C 2420.220 1861.042, 2438.150 1906.714, 2463.713 1978.972 L 2466.710 1987.444 2468.726 1982.972 C 2479.493 1959.086, 2505.396 1904.262, 2506.320 1903.404 C 2508.378 1901.492, 2623.771 1854, 2626.358 1854 C 2627.881 1854, 2629.573 1855.016, 2630.757 1856.640 L 2632.680 1859.281 2633.345 1849.390 C 2634.940 1825.658, 2635.223 1796.424, 2634.059 1775.544 L 2632.835 1753.589 2626.443 1743.989 C 2614.943 1726.713, 2608.036 1708.849, 2606.005 1691.127 C 2605.461 1686.382, 2605.013 1675.068, 2605.008 1665.985 L 2605 1649.470 2597.629 1633.485 C 2573.894 1582.013, 2559.719 1539.098, 2543.124 1468.471 C 2541.609 1462.023, 2539.363 1457.187, 2531.715 1443.899 C 2460.238 1319.725, 2356.256 1207.753, 2242.500 1132.462 C 2140.401 1064.886, 2006.785 1012.733, 1893 996.043 C 1863.051 991.650, 1851.087 990.798, 1814.500 990.453 C 1788.215 990.205, 1774.745 990.501, 1764.584 991.549 M 4185.598 1038.028 C 4116.902 1063.243, 4060.322 1084.464, 4059.864 1085.186 C 4058.082 1087.996, 4060.138 1093, 4063.074 1093 C 4063.587 1093, 4120.142 1072.473, 4188.753 1047.384 C 4306.724 1004.246, 4317 1000.200, 4317 996.889 C 4317 995.510, 4313.148 991.989, 4311.750 992.092 C 4311.063 992.142, 4254.294 1012.813, 4185.598 1038.028 M 3015.500 1014.637 C 3014.400 1014.926, 2881.875 1062.032, 2721 1119.316 C 2519.442 1191.086, 2427.800 1224.159, 2426.250 1225.689 C 2423.537 1228.366, 2423.310 1232.970, 2425.750 1235.827 C 2426.962 1237.246, 2517.293 1269.852, 2719.824 1341.977 C 2880.602 1399.234, 3014.252 1446.477, 3016.824 1446.962 C 3019.469 1447.461, 3023.487 1447.471, 3026.075 1446.985 C 3031.429 1445.980, 3313 1345.830, 3313 1344.931 C 3313 1344.598, 3247.188 1319.886, 3166.750 1290.017 C 3086.313 1260.148, 3019.713 1235.309, 3018.750 1234.819 C 3016.583 1233.718, 3016.420 1228.726, 3018.494 1227.005 C 3019.316 1226.323, 3021.004 1225.973, 3022.244 1226.228 C 3023.485 1226.483, 3092.983 1252.160, 3176.684 1283.288 L 3328.868 1339.884 3472.184 1288.875 C 3570.334 1253.942, 3616.052 1237.222, 3617.250 1235.822 C 3619.493 1233.202, 3619.489 1228.825, 3617.239 1226.047 C 3615.931 1224.432, 3540.151 1197.019, 3322.489 1119.426 C 3023.962 1013.006, 3022.975 1012.669, 3015.500 1014.637 M 2424.032 1260.643 C 2424.068 1276.513, 2424.334 1277.185, 2431.654 1279.948 C 2434.319 1280.954, 2566.325 1328.065, 2725 1384.638 L 3013.500 1487.500 3022 1487.394 L 3030.500 1487.287 3188.500 1430.827 L 3346.500 1374.366 3346.500 1365.585 L 3346.500 1356.804 3337.695 1353.491 L 3328.891 1350.178 3180.195 1403.276 L 3031.500 1456.375 3021.500 1456.378 L 3011.500 1456.382 2719 1352.059 C 2558.125 1294.681, 2425.938 1247.522, 2425.250 1247.261 C 2424.286 1246.895, 2424.007 1249.961, 2424.032 1260.643 M 3482.500 1295.367 C 3408.250 1321.881, 3346.600 1343.935, 3345.500 1344.378 C 3343.799 1345.062, 3344.245 1345.479, 3348.492 1347.169 C 3356.014 1350.164, 3356 1350.140, 3356 1360.622 C 3356 1367.912, 3356.306 1370, 3357.375 1370 C 3358.131 1370, 3416.294 1349.517, 3486.625 1324.483 C 3588.763 1288.127, 3614.953 1278.455, 3616.750 1276.427 C 3618.846 1274.062, 3619 1272.968, 3619 1260.444 C 3619 1253.050, 3618.662 1247.036, 3618.250 1247.080 C 3617.838 1247.124, 3556.750 1268.853, 3482.500 1295.367 M 2439.239 1294.958 C 2440.483 1296.498, 2446.929 1304.450, 2453.564 1312.629 C 2480.950 1346.389, 2503.941 1378.979, 2527.162 1416.955 C 2532.023 1424.905, 2536 1430.700, 2536 1429.833 C 2536 1428.966, 2534.904 1419.537, 2533.564 1408.879 C 2530.801 1386.905, 2529.147 1366.236, 2528.171 1341.500 L 2527.500 1324.500 2491 1311.485 C 2470.925 1304.327, 2450.558 1297.050, 2445.739 1295.314 L 2436.978 1292.157 2439.239 1294.958 M 2615.233 1525.750 L 2615.500 1695.500 2617.690 1703.175 C 2623.971 1725.189, 2635.669 1744.361, 2654.132 1762.898 C 2716.736 1825.758, 2838.880 1866.830, 2984.500 1873.989 C 3089.727 1879.162, 3201.312 1862.191, 3283.500 1828.514 C 3304.232 1820.019, 3305.938 1819.141, 3306.425 1816.707 C 3306.668 1815.493, 3310.739 1757.350, 3315.472 1687.500 C 3325.408 1540.866, 3325.188 1543.512, 3327.852 1538.289 C 3331.144 1531.838, 3336.918 1527.302, 3345.250 1524.625 C 3346.895 1524.097, 3347 1519.865, 3347 1454.415 C 3347 1388.569, 3346.904 1384.793, 3345.250 1385.241 C 3344.287 1385.502, 3273.750 1410.581, 3188.500 1440.971 C 3103.250 1471.362, 3030.721 1496.711, 3027.324 1497.304 C 3022.902 1498.075, 3019.496 1498.073, 3015.324 1497.296 C 3012.121 1496.700, 2920.953 1464.664, 2812.730 1426.106 C 2704.506 1387.548, 2615.736 1356, 2615.463 1356 C 2615.190 1356, 2615.086 1432.388, 2615.233 1525.750 M 3392.489 1368.301 C 3373.784 1375.010, 3357.921 1380.864, 3357.239 1381.309 C 3356.273 1381.940, 3356 1397.739, 3356 1453.090 C 3356 1519.806, 3356.105 1524.096, 3357.750 1524.616 C 3366.837 1527.490, 3373.474 1533.359, 3376.344 1541.059 C 3377.631 1544.512, 3379.614 1569.040, 3385.254 1651.267 C 3389.610 1714.771, 3392.906 1757.113, 3393.504 1757.231 C 3395.040 1757.536, 3406.891 1742.273, 3412.744 1732.453 C 3419.209 1721.606, 3423.658 1710.302, 3426.106 1698.500 C 3427.886 1689.924, 3427.974 1681.642, 3427.987 1522.750 C 3427.994 1431.037, 3427.662 1356.023, 3427.250 1356.051 C 3426.838 1356.079, 3411.195 1361.592, 3392.489 1368.301 M 3347 1534.157 C 3343.013 1535.292, 3337.305 1540.296, 3335.771 1544 C 3335.202 1545.375, 3329.721 1618.838, 3323.593 1707.250 L 3312.449 1868 3351.662 1868 L 3390.874 1868 3390.446 1864.750 C 3390.210 1862.963, 3385.246 1791.300, 3379.415 1705.500 C 3373.583 1619.700, 3368.393 1547.836, 3367.882 1545.803 C 3365.766 1537.394, 3355.580 1531.714, 3347 1534.157 M 1778.500 1555.102 C 1765.883 1556.421, 1743.909 1560.920, 1739.284 1563.130 C 1730.358 1567.397, 1720.758 1581.714, 1712.030 1603.773 C 1707.153 1616.098, 1702.715 1618.416, 1692.578 1613.931 C 1687.301 1611.597, 1683.610 1611.946, 1679.519 1615.164 C 1676.343 1617.662, 1673.254 1623.554, 1672.443 1628.658 C 1671.078 1637.244, 1678.983 1650.036, 1692.516 1661.144 C 1702.501 1669.339, 1702.857 1670.584, 1700.015 1687.412 C 1690.020 1746.595, 1656.270 1788.738, 1602.604 1809.044 L 1592.707 1812.789 1598.954 1817.387 C 1618.527 1831.796, 1644.108 1842.107, 1667.628 1845.067 C 1680.767 1846.721, 1709.447 1845.704, 1722.036 1843.137 C 1739.551 1839.567, 1759.102 1831.464, 1767.918 1824.124 L 1771.336 1821.278 1757.194 1816.565 C 1741.579 1811.360, 1738.007 1808.776, 1737.993 1802.673 C 1737.984 1798.879, 1764.576 1706.465, 1766.589 1703.293 C 1767.938 1701.167, 1768.580 1701.086, 1783.979 1701.086 C 1792.773 1701.086, 1801.762 1700.603, 1803.954 1700.012 C 1808.854 1698.693, 1809.304 1697.325, 1811.361 1677.500 C 1813.264 1659.159, 1814.388 1656.537, 1823.874 1648.299 C 1828.068 1644.657, 1831.646 1641.313, 1831.823 1640.868 C 1832.001 1640.423, 1831.018 1638.579, 1829.639 1636.771 C 1825.284 1631.062, 1820.090 1618.828, 1818.050 1609.479 C 1816.968 1604.517, 1815.384 1592.168, 1814.530 1582.036 C 1813.483 1569.606, 1812.490 1562.871, 1811.479 1561.328 C 1809.322 1558.036, 1805.076 1556.147, 1797.308 1555.024 C 1789.736 1553.929, 1789.722 1553.929, 1778.500 1555.102 M 1850.396 1576.441 C 1844.478 1582.385, 1837.947 1587.340, 1826.592 1594.500 C 1825.151 1595.408, 1825.179 1596.325, 1826.895 1604.500 C 1829.303 1615.971, 1832.036 1622.781, 1837.576 1631.114 C 1844.350 1641.303, 1843.589 1644.391, 1831.866 1654.291 C 1828.094 1657.477, 1824.362 1661.333, 1823.572 1662.860 C 1822.783 1664.387, 1821.430 1672.356, 1820.567 1680.569 C 1818.734 1698.014, 1817.670 1702.421, 1814.533 1705.558 C 1811.125 1708.966, 1805.187 1710.182, 1788.558 1710.876 L 1773.616 1711.500 1760.473 1756.500 C 1752.335 1784.367, 1747.664 1801.939, 1748.206 1802.652 C 1748.688 1803.285, 1750.264 1804.100, 1751.708 1804.463 C 1753.152 1804.825, 1761.246 1807.580, 1769.695 1810.585 C 1783.877 1815.629, 1786.570 1816.237, 1804.778 1818.511 C 1815.625 1819.865, 1824.896 1820.979, 1825.381 1820.987 C 1825.865 1820.994, 1826.014 1819.473, 1825.711 1817.608 C 1825.351 1815.391, 1825.698 1813.449, 1826.711 1812.003 C 1828.159 1809.935, 1828.763 1809.833, 1835.880 1810.456 C 1871.377 1813.561, 1901.938 1825.804, 1920.239 1844.252 C 1923.682 1847.723, 1932.097 1858.649, 1938.938 1868.532 C 1953.106 1888.999, 1967.965 1909.270, 1978.655 1922.716 L 1985.983 1931.932 2024.242 1932.216 C 2060.791 1932.487, 2062.679 1932.593, 2066.500 1934.587 C 2071.095 1936.985, 2074.531 1941.546, 2076.084 1947.310 C 2076.996 1950.698, 2076.449 1955.748, 2072.554 1979.909 C 2070.020 1995.634, 2067.693 2009.907, 2067.385 2011.627 C 2066.856 2014.575, 2067.300 2015.125, 2075.162 2021.256 C 2095.664 2037.245, 2123.405 2053.011, 2144.016 2060.389 C 2149.250 2062.262, 2158.925 2065.069, 2165.516 2066.627 C 2176.951 2069.330, 2178.623 2069.461, 2202 2069.480 C 2223.642 2069.498, 2241.564 2068.305, 2249.880 2066.294 C 2252.257 2065.719, 2252.259 2065.709, 2251.775 2053.609 C 2251.353 2043.084, 2250.813 2040.083, 2247.646 2030.670 C 2238.164 2002.491, 2219.975 1983.935, 2184.500 1966.254 C 2170.902 1959.477, 2153.435 1952.310, 2118 1938.967 C 2038.653 1909.091, 2001.445 1887.568, 1963.439 1849.561 C 1923.388 1809.510, 1899.320 1766.090, 1891.621 1720 C 1890.021 1710.417, 1888.908 1697.174, 1886.989 1664.869 C 1885.324 1636.844, 1881.940 1619.857, 1874.006 1599.704 C 1869.587 1588.481, 1859.933 1569.723, 1858.444 1569.467 C 1857.925 1569.378, 1854.303 1572.517, 1850.396 1576.441 M 4021.609 1844.965 C 3932.792 1875.940, 3881.387 1894.343, 3880.811 1895.373 C 3880.256 1896.365, 3880.308 1898.448, 3880.947 1900.747 C 3884.282 1912.759, 3880.097 1935.164, 3870.870 1954.690 C 3865.408 1966.251, 3865.529 1966.898, 3874.130 1972.008 C 3892.946 1983.186, 3921.637 2008.146, 3938.493 2028 C 3958.332 2051.369, 3975.506 2079.828, 3984.966 2105.014 C 3987.804 2112.567, 3989.350 2114.880, 3998.670 2125.514 C 4025.212 2155.798, 4037.441 2176.932, 4044.399 2204.543 C 4049.444 2224.564, 4051.971 2248.752, 4051.990 2277.215 C 4052.002 2294.846, 4051.926 2294.736, 4062.630 2292.520 C 4068.493 2291.307, 4083.585 2289.255, 4098.500 2287.645 C 4100.700 2287.407, 4115.775 2281.823, 4132 2275.235 C 4207.713 2244.492, 4311.363 2205.284, 4385.376 2179.390 C 4398.507 2174.796, 4409.926 2170.476, 4410.752 2169.791 C 4412.620 2168.241, 4411.922 2156.720, 4408.864 2138.595 C 4398.675 2078.222, 4373.142 2034.177, 4332.500 2006.867 C 4317.480 1996.774, 4296.800 1987.411, 4276.647 1981.579 L 4268.795 1979.307 4268.470 1961.903 C 4267.984 1935.799, 4264.894 1917.270, 4257.496 1896.091 C 4244.508 1858.907, 4218.686 1826.833, 4184.839 1805.840 C 4174.376 1799.351, 4167.201 1795.997, 4164 1796.099 C 4162.625 1796.143, 4098.549 1818.133, 4021.609 1844.965 M 1454.311 1797.866 C 1444.520 1799.625, 1410.591 1825.657, 1383.140 1852.472 C 1352.903 1882.010, 1329.314 1911.696, 1308.653 1946.218 C 1288.443 1979.984, 1274.968 2015.576, 1266.545 2057.440 C 1249.394 2142.676, 1259.350 2222.889, 1294.133 2279.717 C 1308.973 2303.963, 1332.523 2327.298, 1356.617 2341.630 C 1388.188 2360.409, 1433.087 2372.591, 1463 2370.494 C 1505.786 2367.494, 1548.482 2349.040, 1590.500 2315.387 C 1604.678 2304.032, 1635.029 2273.734, 1646.932 2259.056 C 1652.036 2252.761, 1656.419 2247.072, 1656.671 2246.414 C 1656.924 2245.755, 1652.418 2238.006, 1646.657 2229.194 L 1636.184 2213.171 1632.298 2214.044 C 1630.162 2214.524, 1620.558 2216.053, 1610.957 2217.441 C 1549.149 2226.377, 1496.458 2225.821, 1465.884 2215.910 C 1430.650 2204.488, 1403.454 2175.964, 1389.025 2135.297 C 1385.379 2125.022, 1385.484 2121.418, 1389.458 2120.421 C 1392.701 2119.607, 1393.860 2120.477, 1395.884 2125.242 L 1397.588 2129.255 1407.447 2102.377 C 1422.131 2062.346, 1480.302 1907.140, 1500.416 1854.328 C 1510.087 1828.934, 1518 1807.709, 1518 1807.162 C 1518 1806.169, 1509.397 1803.918, 1490.491 1799.965 C 1479.761 1797.721, 1461.133 1796.640, 1454.311 1797.866 M 1527.219 1811.113 C 1526.105 1814.076, 1517.914 1835.625, 1509.018 1859 C 1466.482 1970.760, 1402.988 2141.529, 1403.014 2144.097 C 1403.035 2146.144, 1410.488 2159.511, 1415.640 2166.739 C 1430.440 2187.509, 1451.872 2202.531, 1475.115 2208.427 C 1492.906 2212.940, 1499.548 2213.504, 1534 2213.427 C 1560.901 2213.366, 1569.687 2212.974, 1585 2211.150 C 1601.238 2209.217, 1629.417 2205.047, 1637.185 2203.429 C 1639.054 2203.040, 1640.456 2203.456, 1641.801 2204.801 C 1643.709 2206.709, 1643.740 2206.603, 1644.423 2195.814 C 1646.588 2161.607, 1655.290 2137.514, 1667.976 2130.609 C 1673.712 2127.488, 1679.213 2127.213, 1681.913 2129.913 C 1683.796 2131.796, 1683.841 2131.731, 1684.887 2125.663 C 1685.471 2122.273, 1692.066 2081.700, 1699.541 2035.500 C 1707.728 1984.903, 1713.838 1949.905, 1714.905 1947.489 C 1717.078 1942.567, 1721.876 1937.648, 1727.366 1934.711 C 1731.450 1932.527, 1732.098 1932.497, 1781.250 1932.215 L 1831 1931.929 1830.972 1929.215 C 1830.957 1927.722, 1829.883 1905.183, 1828.587 1879.130 C 1826.978 1846.794, 1825.864 1831.534, 1825.078 1831.048 C 1824.445 1830.657, 1819.106 1829.777, 1813.213 1829.093 C 1807.321 1828.409, 1797.872 1827.284, 1792.217 1826.593 L 1781.933 1825.338 1775.217 1830.694 C 1762.991 1840.443, 1745.332 1848.264, 1727.204 1851.958 C 1695.422 1858.435, 1656.810 1856.054, 1631.669 1846.067 C 1608.763 1836.968, 1578.740 1817.500, 1577.344 1810.841 C 1576.626 1807.417, 1575.681 1807.264, 1549.873 1806.410 L 1529.246 1805.727 1527.219 1811.113 M 4031.500 1851.848 C 3959.450 1876.974, 3899.652 1897.872, 3898.615 1898.287 C 3897.044 1898.915, 3898.080 1900.004, 3904.839 1904.826 C 3926.771 1920.473, 3957.639 1949.576, 3973.963 1970 C 3999.028 2001.360, 4014.975 2033.757, 4019.701 2062.916 C 4020.731 2069.276, 4021.927 2073.846, 4022.500 2073.613 C 4023.050 2073.391, 4075.670 2052.433, 4139.432 2027.042 C 4203.195 2001.650, 4256.183 1980.437, 4257.182 1979.902 C 4258.810 1979.031, 4259 1977.424, 4259 1964.516 C 4259 1902.327, 4233.111 1850.396, 4186 1818.088 C 4177.047 1811.948, 4165.934 1805.944, 4163.779 1806.082 C 4163.075 1806.127, 4103.550 1826.722, 4031.500 1851.848 M 1406.316 1815.938 C 1395.384 1823.301, 1384.213 1833.114, 1374.904 1843.531 C 1361.400 1858.641, 1361.617 1859.461, 1375.556 1846 C 1383.245 1838.575, 1395.153 1827.829, 1402.018 1822.121 C 1416.575 1810.017, 1416.594 1810, 1415.766 1810 C 1415.417 1810, 1411.164 1812.672, 1406.316 1815.938 M 1835.357 1826.250 C 1835.682 1829.688, 1836.932 1854.550, 1838.135 1881.500 C 1839.339 1908.450, 1840.614 1930.841, 1840.969 1931.257 C 1841.324 1931.674, 1871.159 1931.899, 1907.268 1931.757 L 1972.922 1931.500 1958.211 1911.881 C 1950.120 1901.090, 1938.257 1884.665, 1931.848 1875.381 C 1925.440 1866.096, 1918.383 1856.441, 1916.167 1853.925 C 1902.952 1838.920, 1877.694 1826.820, 1849.538 1822.006 C 1833.419 1819.251, 1834.661 1818.879, 1835.357 1826.250 M 2567.282 1887.861 L 2513.064 1910.500 2495.876 1947.500 C 2467.947 2007.623, 2470.972 2001.991, 2464.508 2005.907 C 2460.024 2008.624, 2459.150 2009.552, 2460.193 2010.491 C 2463.462 2013.433, 2486.033 2027.098, 2486.821 2026.611 C 2487.306 2026.311, 2488.474 2024.047, 2489.417 2021.579 C 2491.341 2016.539, 2491.405 2016.508, 2502.636 2015.016 C 2528.795 2011.543, 2547.017 2000.382, 2555.370 1982.715 C 2561.198 1970.390, 2562.356 1961.567, 2560.582 1943 C 2559.883 1935.682, 2560.050 1933.712, 2561.781 1928.832 C 2566.037 1916.832, 2575.817 1906.171, 2595.138 1892.471 C 2611.645 1880.765, 2616.274 1876.811, 2619.927 1871.297 C 2623 1866.656, 2623.659 1864.902, 2622.250 1865.111 C 2621.838 1865.172, 2597.102 1875.410, 2567.282 1887.861 M 2630 1873.997 C 2630 1876.092, 2615.608 1890.019, 2608.225 1895.067 C 2587.373 1909.327, 2577.161 1918.884, 2572.418 1928.577 C 2569.517 1934.508, 2569.379 1936.304, 2570.527 1953.135 C 2571.443 1966.570, 2569.608 1975.593, 2563.476 1987.812 C 2553.602 2007.487, 2535.417 2019.396, 2508.527 2023.798 C 2498.310 2025.471, 2498.104 2025.558, 2496.512 2028.896 C 2495.622 2030.764, 2495.254 2032.624, 2495.696 2033.028 C 2496.138 2033.432, 2500.438 2036.281, 2505.250 2039.359 C 2511.828 2043.566, 2514 2045.492, 2514 2047.118 C 2514 2048.308, 2510.129 2056.792, 2505.398 2065.972 L 2496.796 2082.662 2504.833 2111.081 C 2513.808 2142.815, 2518.476 2160.130, 2525.961 2189.443 C 2528.761 2200.412, 2531.267 2209.600, 2531.529 2209.862 C 2532.108 2210.442, 2637.350 2223.853, 2637.866 2223.413 C 2638.068 2223.241, 2636.167 2215.541, 2633.643 2206.300 C 2617.981 2148.969, 2611.961 2097.514, 2614.084 2039.122 C 2615.121 2010.592, 2616.834 1992.699, 2624.006 1935.500 C 2630.394 1884.562, 2631.620 1873, 2630.638 1873 C 2630.287 1873, 2630 1873.449, 2630 1873.997 M 4023.200 1880.200 C 4022.540 1880.860, 4022 1882.581, 4022 1884.023 C 4022 1886.153, 4023.336 1887.560, 4029.095 1891.495 C 4039.529 1898.624, 4056.038 1914.872, 4065.100 1926.930 C 4079.601 1946.227, 4090.456 1971.303, 4095.098 1996.231 C 4097.869 2011.108, 4098.256 2012, 4101.943 2012 C 4106.698 2012, 4107.366 2009.520, 4105.520 1998.725 C 4097.510 1951.897, 4073.760 1912.549, 4037.118 1885.401 C 4028.546 1879.051, 4025.491 1877.909, 4023.200 1880.200 M 3984.011 1896.487 C 3981.995 1898.916, 3983.682 1902.525, 3988.233 1905.517 C 4001.856 1914.474, 4018.245 1930.742, 4029.519 1946.500 C 4042.320 1964.392, 4052.721 1989.657, 4057.100 2013.500 C 4058.312 2020.100, 4059.741 2026.063, 4060.275 2026.750 C 4061.507 2028.338, 4065.233 2028.367, 4066.800 2026.800 C 4068.505 2025.095, 4068.297 2020.639, 4065.939 2008.422 C 4061.478 1985.306, 4049.834 1958.078, 4036.257 1939.012 C 4023.735 1921.429, 3994.613 1895, 3987.760 1895 C 3986.377 1895, 3984.690 1895.669, 3984.011 1896.487 M 1741.500 1943.167 C 1738.328 1944.921, 1734.925 1948.278, 1733.455 1951.104 C 1732.078 1953.750, 1697.475 2164.808, 1698.286 2165.619 C 1698.529 2165.862, 1722.443 2161.745, 1751.429 2156.470 C 1780.415 2151.196, 1805.339 2147.019, 1806.815 2147.190 C 1808.953 2147.437, 1810.054 2148.620, 1812.219 2153 C 1818.004 2164.700, 1817.837 2179.491, 1811.783 2191.788 C 1807.319 2200.856, 1802.910 2204.905, 1793.240 2208.816 C 1784.177 2212.481, 1781 2215.511, 1781 2220.489 C 1781 2230.361, 1761.758 2237.885, 1712 2247.470 C 1698.525 2250.066, 1686.594 2252.538, 1685.488 2252.965 C 1683.659 2253.670, 1682.449 2260.088, 1672.229 2323.282 C 1663.899 2374.789, 1661.225 2393.461, 1661.917 2395.281 C 1662.430 2396.632, 1664.070 2398.696, 1665.560 2399.869 L 1668.270 2402 1826.185 2402 C 1962.123 2402, 1984.489 2401.798, 1986.901 2400.551 C 1990.751 2398.560, 1995.684 2392.735, 1996.408 2389.324 C 1996.738 2387.771, 2012.789 2289.075, 2032.077 2170 C 2053.985 2034.750, 2066.943 1952.186, 2066.607 1950 C 2066.294 1947.972, 2064.978 1945.554, 2063.478 1944.250 L 2060.888 1942 1902.194 1942.030 C 1788.169 1942.052, 1742.937 1942.372, 1741.500 1943.167 M 4146.546 2034.488 C 4082.771 2059.942, 4029.953 2081.171, 4029.171 2081.664 C 4028.088 2082.347, 4029.860 2084.248, 4036.625 2089.662 C 4071.729 2117.756, 4096.573 2157.405, 4104.912 2198.643 C 4109.140 2219.551, 4110.241 2243.636, 4107.883 2263.629 C 4107.269 2268.838, 4107.012 2273.345, 4107.313 2273.646 C 4107.613 2273.947, 4125.103 2267.351, 4146.180 2258.989 C 4196.269 2239.116, 4265.897 2212.406, 4308.795 2196.608 C 4344.157 2183.585, 4394.942 2165.555, 4399.447 2164.424 C 4402.565 2163.641, 4402.686 2161.553, 4400.465 2146.766 C 4396.668 2121.486, 4389.330 2095.834, 4380.715 2077.725 C 4362.895 2040.267, 4334.952 2014.103, 4296.157 1998.552 C 4285.653 1994.341, 4265.314 1987.864, 4263.351 1988.104 C 4262.883 1988.161, 4210.321 2009.034, 4146.546 2034.488 M 2423.500 2013.598 C 2366.850 2046.949, 2297.768 2070.702, 2238 2077.379 C 2186.566 2083.126, 2156.531 2078.553, 2117.229 2058.992 C 2102.182 2051.503, 2084.343 2040.466, 2071.509 2030.706 C 2068.213 2028.200, 2065.390 2026.277, 2065.233 2026.433 C 2064.901 2026.766, 2030 2241.781, 2030 2243.497 C 2030 2245.016, 2055.302 2257.560, 2072.195 2264.416 C 2116.332 2282.329, 2155.613 2290.037, 2195.886 2288.689 C 2221.974 2287.816, 2241.512 2284.227, 2265.878 2275.830 C 2317.081 2258.186, 2362.652 2228.623, 2406.526 2184.588 C 2442.133 2148.852, 2469.927 2111.239, 2495.528 2064.143 C 2499.878 2056.139, 2502.890 2049.527, 2502.390 2049.076 C 2500.374 2047.254, 2436.169 2007.005, 2435.369 2007.061 C 2434.891 2007.095, 2429.550 2010.036, 2423.500 2013.598 M 4257 2021 C 4255.300 2024.176, 4257.366 2026.655, 4264.850 2030.424 C 4283.189 2039.660, 4304.758 2057.861, 4317.530 2074.879 C 4329.570 2090.921, 4338.941 2110.410, 4345.476 2133 C 4347.465 2139.875, 4349.409 2146.576, 4349.796 2147.891 C 4350.810 2151.335, 4354.340 2152.356, 4357.201 2150.033 L 4359.500 2148.167 4356.648 2136.833 C 4348.072 2102.755, 4332.726 2074.659, 4310.546 2052.425 C 4297.535 2039.382, 4290.658 2034.094, 4274.769 2024.914 C 4263.621 2018.474, 4258.908 2017.435, 4257 2021 M 4218 2035 C 4216.230 2038.307, 4218.270 2040.375, 4229.215 2046.367 C 4243.335 2054.098, 4254.709 2062.885, 4266.662 2075.294 C 4286.354 2095.740, 4300.277 2121.877, 4308.586 2154 C 4310.755 2162.385, 4312.711 2166, 4315.080 2166 C 4315.464 2166, 4316.841 2165.138, 4318.139 2164.083 L 4320.500 2162.167 4317.637 2150.833 C 4309.005 2116.660, 4293.725 2088.671, 4271.546 2066.409 C 4258.699 2053.515, 4250.302 2047.111, 4234.850 2038.425 C 4224.365 2032.530, 4219.816 2031.606, 4218 2035 M 1250.693 2059.250 C 1112.268 2324.779, 1069.034 2436.451, 1056.438 2561 C 1054.260 2582.537, 1053.392 2655.913, 1054.923 2689 C 1063.677 2878.087, 1106.991 3039.342, 1170.817 3120.470 C 1178.241 3129.907, 1191.827 3145, 1192.896 3145 C 1193.960 3145, 1202.516 3118.578, 1206.030 3104.442 C 1211.440 3082.679, 1214.539 3056.020, 1220.500 2980 C 1234.735 2798.455, 1240.930 2738.310, 1252.561 2668.739 C 1264.991 2594.389, 1287.739 2514.295, 1327.559 2404.671 L 1337.243 2378.012 1333.657 2374.042 C 1325.066 2364.532, 1322.464 2354.003, 1325.420 2340.713 L 1327.096 2333.180 1317.423 2323.840 C 1280.971 2288.644, 1259.238 2241.577, 1251.466 2181 C 1249.246 2163.698, 1248.473 2127.980, 1249.908 2109 C 1251.252 2091.213, 1254.237 2069.387, 1257.459 2053.782 C 1258.683 2047.852, 1259.568 2043, 1259.425 2043 C 1259.281 2043, 1255.352 2050.313, 1250.693 2059.250 M 1238 2048.551 C 1215.521 2057.713, 1191.629 2072.129, 1172.915 2087.821 C 1107.586 2142.600, 1064.527 2237.586, 1057.011 2343.500 C 1054.639 2376.923, 1057.083 2413.828, 1063.832 2446.508 L 1065.689 2455.500 1066.895 2451 C 1070.644 2437.023, 1081.813 2401.784, 1087.535 2385.882 C 1116.054 2306.625, 1157.065 2218.542, 1238.217 2062.250 C 1243.143 2052.762, 1247.022 2045.020, 1246.837 2045.043 C 1246.652 2045.067, 1242.675 2046.646, 1238 2048.551 M 2487.551 2097.260 C 2478.391 2113.148, 2456.303 2143.458, 2438.777 2164.191 C 2379.266 2234.591, 2299.990 2283.947, 2227.917 2295.468 C 2204 2299.292, 2171.512 2299.357, 2148.084 2295.629 C 2143.591 2294.914, 2139.705 2294.668, 2139.449 2295.082 C 2138.261 2297.004, 2137.344 2318.556, 2138.061 2327.701 C 2141.502 2371.593, 2160.183 2407.489, 2199.644 2446.034 C 2218.605 2464.555, 2229.700 2473.734, 2271.500 2505.478 C 2303.084 2529.465, 2318.435 2542.388, 2335.642 2559.476 C 2355.722 2579.418, 2366.126 2592.907, 2375.383 2611 C 2386.016 2631.785, 2390.420 2647.930, 2391.612 2670.500 C 2392.735 2691.751, 2389.271 2710.346, 2380.918 2727.914 C 2374.666 2741.062, 2368.443 2750.396, 2352.523 2770.500 C 2325.139 2805.083, 2315.413 2823.677, 2308.846 2854 C 2306.848 2863.226, 2306.570 2867.352, 2306.551 2888 C 2306.533 2908.696, 2306.798 2912.716, 2308.772 2921.690 C 2314.551 2947.961, 2326.753 2975.119, 2345.754 3004 C 2351.724 3013.075, 2373.701 3043.225, 2394.591 3071 C 2415.480 3098.775, 2436.156 3126.675, 2440.536 3133 L 2448.500 3144.500 2449 3026.500 C 2449.552 2896.141, 2448.923 2908.019, 2456.021 2893.959 C 2464.954 2876.262, 2485.827 2864.072, 2507.291 2864.017 C 2511.025 2864.008, 2537.093 2866.920, 2565.218 2870.489 C 2593.344 2874.058, 2616.513 2876.820, 2616.706 2876.627 C 2617.899 2875.434, 2607.097 2720.764, 2605.725 2719.392 C 2605.567 2719.234, 2583.852 2716.367, 2557.469 2713.022 C 2531.086 2709.677, 2507.202 2706.285, 2504.393 2705.484 C 2479.469 2698.375, 2457.430 2675.642, 2450.968 2650.377 C 2449.044 2642.852, 2449 2638.379, 2449 2450.050 C 2449 2236.311, 2448.482 2252.582, 2455.732 2238.592 C 2460.270 2229.835, 2470.210 2219.701, 2478.506 2215.372 C 2489.612 2209.577, 2494.272 2208.500, 2508.250 2208.500 C 2515.526 2208.500, 2521 2208.097, 2521 2207.561 C 2521 2203.404, 2491.722 2096.415, 2490.131 2094.760 C 2489.740 2094.353, 2488.579 2095.478, 2487.551 2097.260 M 1671.773 2139.067 C 1668.837 2140.778, 1664.389 2148.149, 1661.554 2156 C 1656.989 2168.645, 1654.901 2180.310, 1654.302 2196.529 C 1653.812 2209.755, 1654.003 2212.573, 1655.888 2220.029 C 1659.735 2235.246, 1666.435 2242.184, 1677.891 2242.813 C 1692.289 2243.604, 1756.817 2228.963, 1768.178 2222.328 C 1770.997 2220.682, 1771.594 2219.657, 1772.183 2215.447 C 1772.756 2211.352, 1773.575 2209.873, 1776.941 2206.861 C 1779.177 2204.859, 1784.628 2201.762, 1789.054 2199.978 C 1794.660 2197.718, 1797.835 2195.772, 1799.520 2193.562 C 1806.128 2184.899, 1808.520 2172.739, 1805.595 2162.678 C 1804.687 2159.555, 1803.635 2157, 1803.257 2157 C 1802.879 2157, 1775.112 2161.983, 1741.553 2168.073 C 1681.068 2179.049, 1680.523 2179.129, 1678.919 2177.149 C 1677.689 2175.629, 1676.986 2170.715, 1675.979 2156.576 C 1675.251 2146.359, 1674.395 2138.014, 1674.077 2138.030 C 1673.760 2138.047, 1672.723 2138.514, 1671.773 2139.067 M 2499.528 2218.066 C 2479.788 2221.367, 2464.561 2235.642, 2459.511 2255.583 C 2458.145 2260.976, 2458 2283.404, 2458.235 2453.083 L 2458.500 2644.500 2461.375 2652.353 C 2466.677 2666.836, 2477.439 2680.157, 2490.828 2688.810 C 2503.872 2697.241, 2448.626 2689.811, 3232.029 2788.492 C 3627.220 2838.271, 3953.245 2878.995, 3956.529 2878.988 C 3978.788 2878.944, 3999.519 2862.158, 4003.982 2840.565 C 4004.696 2837.113, 4004.945 2774.352, 4004.764 2643.500 L 4004.500 2451.500 4001.821 2444.165 C 4000.347 2440.131, 3997.647 2434.293, 3995.821 2431.191 C 3991.555 2423.946, 3979.054 2411.445, 3971.809 2407.179 C 3958.627 2399.418, 4009.166 2406.178, 3230.341 2307.997 C 2833.329 2257.949, 2507.600 2217.053, 2506.500 2217.118 C 2505.400 2217.182, 2502.263 2217.609, 2499.528 2218.066 M 1656.408 2262.693 C 1611.359 2318.943, 1551.707 2361.333, 1499.212 2374.402 C 1481.500 2378.812, 1475.366 2379.503, 1454.500 2379.439 C 1436.813 2379.385, 1433.055 2379.071, 1422 2376.725 C 1392.879 2370.545, 1366.942 2360.055, 1344.346 2345.318 C 1339.861 2342.393, 1335.985 2340, 1335.733 2340 C 1335.480 2340, 1334.737 2342.588, 1334.081 2345.750 C 1333.101 2350.472, 1333.147 2352.344, 1334.337 2356.221 C 1339.592 2373.334, 1365.720 2390.510, 1399.461 2399.032 C 1439.134 2409.051, 1477.815 2408.159, 1529 2396.045 C 1560.781 2388.522, 1593.376 2382.852, 1626.838 2379.026 C 1635.824 2377.998, 1643.448 2376.885, 1643.781 2376.552 C 1644.466 2375.867, 1664.071 2255.939, 1663.701 2254.693 C 1663.569 2254.249, 1660.288 2257.849, 1656.408 2262.693 M 2027.586 2257.750 C 2027.271 2259.262, 2022.275 2289.975, 2016.484 2326 C 2010.578 2362.736, 2005.199 2393.257, 2004.234 2395.500 C 2003.288 2397.700, 2000.829 2401.344, 1998.770 2403.597 L 1995.027 2407.695 2002.263 2410.486 C 2013.358 2414.766, 2029.941 2423.466, 2040.641 2430.620 C 2066.435 2447.865, 2089.918 2472.795, 2108.983 2503.171 C 2117.743 2517.129, 2132.893 2547.380, 2142.700 2570.500 C 2162.941 2618.214, 2173.251 2658.294, 2178.196 2708.500 C 2180.219 2729.036, 2179.718 2782.748, 2177.160 2819.662 C 2174.817 2853.470, 2174.379 2884.295, 2176.066 2896.678 C 2179.414 2921.251, 2187.657 2938.745, 2202.635 2953.061 C 2211.186 2961.234, 2216.894 2965.151, 2227.327 2970.003 C 2243.533 2977.542, 2257.259 2980.079, 2295 2982.510 C 2308.475 2983.379, 2320.063 2984.280, 2320.750 2984.513 C 2321.438 2984.746, 2322 2984.779, 2322 2984.586 C 2322 2984.393, 2319.316 2978.670, 2316.035 2971.867 C 2299.479 2937.542, 2293.468 2905.244, 2297.048 2869.856 C 2300.665 2834.094, 2312.002 2806.967, 2336.481 2775.500 C 2369.936 2732.494, 2375.427 2723.055, 2380.106 2700.500 C 2382.480 2689.059, 2382.637 2667.217, 2380.436 2654.500 C 2375.913 2628.359, 2363.238 2603.690, 2341.671 2579.050 C 2325.739 2560.848, 2303.722 2542.081, 2253.423 2503.827 C 2224.802 2482.061, 2208.429 2468.406, 2193.173 2453.579 C 2153.617 2415.138, 2133.475 2377.475, 2128.954 2333.500 C 2127.801 2322.292, 2128.106 2302.775, 2129.547 2295.479 L 2130.135 2292.500 2119.818 2290.157 C 2098.108 2285.226, 2063.628 2272.359, 2038.974 2259.987 C 2033.508 2257.244, 2028.839 2255, 2028.598 2255 C 2028.356 2255, 2027.901 2256.238, 2027.586 2257.750 M 4242.500 2376.508 C 4190.800 2395.450, 4147.488 2411.401, 4146.250 2411.953 C 4142.366 2413.687, 4143.700 2421, 4147.900 2421 C 4149.810 2421, 4341.071 2351.045, 4342.750 2349.732 C 4344.338 2348.491, 4344.367 2344.767, 4342.800 2343.200 C 4342.140 2342.540, 4340.453 2342.015, 4339.050 2342.034 C 4337.648 2342.053, 4294.200 2357.566, 4242.500 2376.508 M 2612.655 2387.829 C 2610.524 2390.184, 2610.555 2392.309, 2612.750 2394.190 C 2614.049 2395.303, 2716.988 2408.597, 3012.312 2445.789 C 3231.109 2473.344, 3410.755 2495.648, 3411.524 2495.352 C 3414.984 2494.025, 3414.349 2487.347, 3410.683 2486.501 C 3409.119 2486.140, 2615.776 2386, 2614.482 2386 C 2614.387 2386, 2613.565 2386.823, 2612.655 2387.829 M 1367.339 2410.765 C 1354.563 2434.866, 1334.672 2480.113, 1321.518 2515 C 1292.763 2591.261, 1271.959 2668.477, 1258.606 2748.500 C 1253.833 2777.105, 1251.908 2791.595, 1252.630 2793.477 C 1253.705 2796.279, 1256.872 2797.314, 1259.368 2795.678 C 1261.364 2794.371, 1261.899 2792.150, 1264.392 2774.857 C 1281.987 2652.757, 1321.164 2524.803, 1371.881 2423.788 L 1381.756 2404.119 1377.858 2402.560 C 1375.714 2401.702, 1373.631 2401.007, 1373.230 2401.015 C 1372.828 2401.024, 1370.178 2405.411, 1367.339 2410.765 M 1793.997 2422.250 C 1793.991 2440.194, 1790.895 2588.135, 1788.969 2662.500 C 1784.285 2843.306, 1778.910 2989.459, 1772.390 3113.300 C 1770.948 3140.691, 1770.043 3163.377, 1770.380 3163.714 C 1771.542 3164.876, 1790.528 3157.920, 1802.296 3152.021 C 1878.044 3114.051, 1935.946 3028.656, 1972.500 2900.999 C 1995.206 2821.704, 2009.610 2721.667, 2011.665 2629 C 2012.497 2591.457, 2010.239 2560.669, 2002.914 2509.666 C 1998.386 2478.146, 1988.721 2425.295, 1985.373 2413.750 C 1984.894 2412.099, 1979.461 2412, 1889.433 2412 L 1794 2412 1793.997 2422.250 M 1997 2420.297 C 1997 2421.010, 1997.875 2425.623, 1998.945 2430.547 C 2007.140 2468.266, 2016.789 2534.858, 2020.085 2576.450 C 2021.597 2595.529, 2020.715 2659.086, 2018.565 2686 C 2013.613 2747.984, 2006.186 2799.779, 1994.886 2851.136 L 1990.786 2869.772 2003.157 2884.636 C 2051.837 2943.122, 2101.316 3010.520, 2139.968 3070.991 C 2146.117 3080.611, 2151.302 3088.635, 2151.489 3088.822 C 2151.676 3089.010, 2183.255 3077.649, 2221.665 3063.578 C 2260.074 3049.506, 2292.722 3037.994, 2294.215 3037.996 C 2297.291 3038.001, 2299.455 3040.991, 2298.518 3043.944 C 2297.792 3046.231, 2303.888 3043.851, 2224 3073.030 C 2187.425 3086.389, 2157.376 3097.410, 2157.223 3097.520 C 2157.071 3097.630, 2162.975 3107.795, 2170.343 3120.110 C 2221.448 3205.526, 2268.508 3303.323, 2300.935 3391.500 C 2303.766 3399.200, 2306.627 3406.912, 2307.291 3408.637 L 2308.500 3411.774 2386 3383.429 C 2428.625 3367.840, 2464.173 3354.680, 2464.995 3354.187 C 2465.868 3353.662, 2466.963 3350.424, 2467.629 3346.394 L 2468.768 3339.500 2464.271 3333.500 C 2458.174 3325.366, 2453.251 3315.303, 2450.930 3306.226 C 2449.117 3299.138, 2449 3294.576, 2448.994 3231.090 C 2448.988 3172.246, 2448.789 3163.119, 2447.451 3160.553 C 2443.204 3152.408, 2420.673 3121.553, 2368.916 3053 C 2353.596 3032.707, 2333.570 3004.201, 2329.399 2996.748 C 2328.196 2994.599, 2320.217 2993.528, 2294 2991.995 C 2271.216 2990.663, 2254.131 2988.610, 2243.106 2985.878 C 2204.436 2976.296, 2177.182 2948.733, 2168.912 2910.839 C 2164.314 2889.772, 2164.174 2872.314, 2168.111 2811 C 2170.634 2771.703, 2170.382 2720.717, 2167.551 2698 C 2161.130 2646.460, 2147.911 2603.279, 2120.685 2544.905 C 2093.151 2485.872, 2053.100 2442.942, 2006.844 2422.879 C 1996.693 2418.476, 1997 2418.557, 1997 2420.297 M 1450.253 2431.250 C 1449.707 2431.938, 1448.699 2434.300, 1448.012 2436.500 C 1446.059 2442.758, 1435.393 2464.694, 1430.270 2472.991 C 1422.160 2486.122, 1411.958 2499.174, 1401.084 2510.330 C 1383.246 2528.630, 1369.316 2538.826, 1347.278 2549.714 C 1333.745 2556.400, 1331.908 2558.092, 1333.980 2561.962 C 1335.731 2565.235, 1339.586 2564.437, 1352.500 2558.131 C 1385.529 2542.002, 1412.788 2517.654, 1434.573 2484.824 C 1442.527 2472.838, 1452.292 2453.755, 1456.429 2442.116 C 1458.856 2435.288, 1458.937 2434.553, 1457.504 2432.366 C 1455.821 2429.797, 1451.887 2429.191, 1450.253 2431.250 M 3687 2444.088 C 3635.585 2450.687, 3592.500 2483.635, 3573.066 2531.215 C 3559.266 2565.003, 3558.397 2606.005, 3570.665 2644.500 C 3576.758 2663.618, 3588.806 2686.405, 3601.859 2703.500 C 3608.124 2711.705, 3624.979 2728.996, 3633.612 2736.073 C 3654.796 2753.439, 3681.903 2767.288, 3706.717 2773.422 C 3724.242 2777.754, 3730.692 2778.490, 3750.500 2778.414 C 3770.993 2778.336, 3782.013 2776.701, 3798 2771.369 C 3846.118 2755.319, 3881.038 2715.780, 3892.216 2664.688 C 3894.167 2655.774, 3894.443 2651.623, 3894.426 2631.500 C 3894.403 2606.198, 3893.278 2598.282, 3886.835 2578.120 C 3866.821 2515.489, 3813.085 2464.242, 3750.891 2448.472 C 3731.181 2443.474, 3705.508 2441.712, 3687 2444.088 M 2612.571 2467.571 C 2610.596 2469.546, 2610.553 2472.385, 2612.474 2473.979 C 2614.622 2475.761, 2998.953 2524.096, 3001.241 2522.871 C 3003.898 2521.449, 3003.572 2516.205, 3000.750 2514.982 C 2998.854 2514.160, 2620.264 2466, 2615.700 2466 C 2614.843 2466, 2613.436 2466.707, 2612.571 2467.571 M 4308 2500.315 C 4256.881 2519.090, 4255.492 2519.670, 4255.178 2522.359 C 4254.804 2525.566, 4256.471 2528, 4259.043 2528 C 4261.905 2528, 4364.208 2490.220, 4365.884 2488.544 C 4368.137 2486.291, 4366.256 2481.575, 4362.982 2481.266 C 4361.617 2481.137, 4336.875 2489.709, 4308 2500.315 M 3665 2504.118 C 3657.098 2507.253, 3652.017 2517.651, 3654.020 2526.588 C 3658.085 2544.729, 3680.084 2554.277, 3692.320 2543.212 C 3700.664 2535.666, 3699.453 2519.378, 3689.872 2510.307 C 3683.214 2504.002, 3672.201 2501.262, 3665 2504.118 M 3705.662 2540.177 C 3704.760 2542.475, 3704.158 2544.492, 3704.325 2544.659 C 3704.492 2544.826, 3725.300 2555.095, 3750.565 2567.479 L 3796.500 2589.996 3798.176 2586.248 C 3799.098 2584.187, 3799.868 2582.050, 3799.889 2581.500 C 3799.921 2580.643, 3709.557 2535.927, 3707.902 2535.981 C 3707.573 2535.991, 3706.565 2537.880, 3705.662 2540.177 M 3190.035 2540.934 C 3188.698 2543.432, 3188.731 2544.250, 3190.250 2546.325 C 3191.283 2547.736, 3201.051 2549.234, 3246.457 2554.941 C 3284.452 2559.716, 3301.968 2561.552, 3303.207 2560.889 C 3305.898 2559.449, 3305.595 2554.211, 3302.750 2552.997 C 3300.536 2552.052, 3198.859 2539, 3193.711 2539 C 3192.124 2539, 3190.657 2539.772, 3190.035 2540.934 M 2612.011 2547.487 C 2610.465 2549.350, 2611.442 2553.572, 2613.611 2554.404 C 2614.507 2554.748, 2664.968 2561.308, 2725.747 2568.982 C 2805.634 2579.068, 2836.774 2582.656, 2838.127 2581.932 C 2840.896 2580.450, 2840.647 2575.227, 2837.750 2574.017 C 2835.381 2573.027, 2621.761 2545.987, 2616.372 2545.995 C 2614.652 2545.998, 2612.690 2546.669, 2612.011 2547.487 M 3679.926 2557.718 L 3676.352 2558.100 3683.838 2603.050 L 3691.325 2648 3696.163 2648 C 3698.855 2648, 3701 2647.537, 3701 2646.957 C 3701 2645.707, 3687.220 2562.481, 3686.478 2559.250 C 3686.194 2558.012, 3685.408 2557.076, 3684.731 2557.168 C 3684.054 2557.261, 3681.892 2557.508, 3679.926 2557.718 M 3818.637 2578.465 C 3798.072 2585.796, 3804.008 2616.484, 3827.061 2622.015 C 3836.821 2624.356, 3846.976 2618.698, 3849.774 2609.360 C 3851.365 2604.051, 3851.322 2602.446, 3849.417 2596.034 C 3846.491 2586.178, 3834.269 2576.838, 3824.568 2577.044 C 3823.431 2577.068, 3820.762 2577.707, 3818.637 2578.465 M 2995.200 2595.200 C 2993.555 2596.845, 2993.691 2600.499, 2995.451 2601.960 C 2996.806 2603.083, 3134.432 2620.999, 3141.715 2621 C 3146.797 2621, 3148.849 2614.307, 3144.301 2612.562 C 3142.584 2611.903, 3001.955 2594.009, 2998.450 2594.003 C 2997.323 2594.001, 2995.860 2594.540, 2995.200 2595.200 M 3766.067 2637.808 C 3747.678 2650.839, 3732.504 2661.950, 3732.345 2662.500 C 3732.187 2663.050, 3733.282 2664.971, 3734.779 2666.770 L 3737.500 2670.039 3771 2646.431 C 3789.425 2633.447, 3804.889 2622.451, 3805.365 2621.996 C 3806.201 2621.197, 3801.416 2613.940, 3800.131 2614.058 C 3799.784 2614.091, 3784.455 2624.778, 3766.067 2637.808 M 3690 2658.474 C 3679.570 2661.857, 3672.442 2672.297, 3672.572 2684 C 3672.677 2693.484, 3675.965 2701.131, 3682.913 2708.048 C 3691.187 2716.285, 3696.412 2718.503, 3707.500 2718.486 C 3717.421 2718.471, 3720.458 2717.388, 3725.933 2711.914 C 3731.646 2706.200, 3733.484 2701.445, 3733.436 2692.500 C 3733.401 2685.792, 3732.929 2683.535, 3730.516 2678.522 C 3722.987 2662.880, 3704.546 2653.755, 3690 2658.474 M 2616 2723.300 C 2616 2724.910, 2617.118 2739.789, 2618.484 2756.364 C 2621.479 2792.704, 2624.673 2839.708, 2625.618 2861.342 C 2626.266 2876.155, 2626.447 2877.239, 2628.405 2878.032 C 2630.432 2878.852, 2813.356 2902.037, 2817.604 2902.012 C 2819.490 2902.001, 2819.926 2900.839, 2821.821 2890.750 C 2830.237 2845.953, 2836.009 2800.512, 2838.561 2758.980 L 2839.208 2748.460 2816.854 2745.684 C 2804.559 2744.157, 2754.338 2737.837, 2705.250 2731.640 L 2616 2720.372 2616 2723.300 M 1487.645 2860.250 C 1457.693 2949.280, 1406.905 3102.600, 1394.373 3141.816 C 1391.857 3149.690, 1390.053 3156.386, 1390.364 3156.697 C 1390.674 3157.008, 1395.332 3156.076, 1400.714 3154.626 C 1443.453 3143.111, 1482.653 3137.658, 1538.816 3135.417 L 1555.132 3134.766 1554.541 3126.133 C 1547.476 3022.869, 1541.602 2953.819, 1528.469 2819.617 C 1525.461 2788.882, 1523 2762.894, 1523 2761.867 C 1523 2760.840, 1522.633 2760, 1522.185 2760 C 1521.737 2760, 1506.194 2805.113, 1487.645 2860.250 M 4440 2814.913 C 4366.474 2841.936, 4364.492 2842.733, 4364.178 2845.391 C 4363.785 2848.719, 4365.517 2851.016, 4368.372 2850.954 C 4369.543 2850.928, 4404.475 2838.441, 4446 2823.203 C 4520.331 2795.928, 4521.505 2795.456, 4521.822 2792.689 C 4522.214 2789.273, 4520.492 2786.971, 4517.628 2787.082 C 4516.457 2787.128, 4481.525 2799.652, 4440 2814.913 M 4194 2905.020 C 4126.625 2929.744, 4066.454 2951.821, 4060.287 2954.081 C 4048.774 2958.301, 4047.128 2959.677, 4048.484 2963.949 C 4048.824 2965.021, 4049.965 2966.172, 4051.020 2966.506 C 4052.888 2967.099, 4319.947 2870.032, 4322.801 2867.723 C 4323.517 2867.144, 4323.967 2865.282, 4323.801 2863.585 C 4323.532 2860.833, 4323.123 2860.477, 4320 2860.284 C 4317.502 2860.131, 4281.444 2872.933, 4194 2905.020 M 2499.341 2874.096 C 2479.688 2877.379, 2464.571 2891.603, 2459.513 2911.574 C 2458.151 2916.953, 2458.005 2939.472, 2458.237 3108.574 L 2458.500 3299.500 2461.239 3307.578 C 2468.730 3329.670, 2488.691 3348.112, 2510.367 3352.970 C 2516.566 3354.359, 3008.096 3416.237, 3008.637 3415.696 C 3009.535 3414.798, 3001.163 3398.253, 2992.608 3384.018 C 2977.317 3358.579, 2967.109 3337.099, 2951.490 3297.500 C 2931.414 3246.600, 2918.973 3204.022, 2912.337 3163.500 C 2909.762 3147.775, 2909.743 3110.013, 2912.303 3098.137 C 2913.295 3093.537, 2913.970 3089.646, 2913.803 3089.490 C 2913.637 3089.334, 2846.225 3080.757, 2764 3070.430 C 2655.270 3056.774, 2614.023 3051.249, 2612.750 3050.172 C 2610.484 3048.253, 2610.525 3045.740, 2612.858 3043.628 C 2614.608 3042.045, 2623.598 3043.066, 2765.629 3060.973 C 2848.631 3071.438, 2916.837 3080, 2917.198 3080 C 2917.558 3080, 2919.319 3077.412, 2921.111 3074.250 C 2925.688 3066.171, 2935.135 3057.179, 2943.222 3053.205 C 2964.339 3042.829, 2991.440 3045.510, 3022.500 3061.049 C 3037.697 3068.652, 3050.689 3077.878, 3063.467 3090.143 L 3073.514 3099.786 3241.507 3120.936 C 3333.903 3132.569, 3410.264 3142.315, 3411.199 3142.594 C 3414.409 3143.554, 3414.699 3150.134, 3411.584 3151.329 C 3410.847 3151.612, 3337.401 3142.648, 3248.372 3131.408 C 3159.342 3120.168, 3085.507 3111.091, 3084.293 3111.236 C 3082.141 3111.494, 3082.171 3111.635, 3085.532 3117 C 3093.036 3128.979, 3097.629 3145.125, 3100.489 3169.571 C 3101.309 3176.579, 3102.180 3182.513, 3102.425 3182.758 C 3102.669 3183.003, 3132.283 3186.899, 3168.232 3191.417 C 3204.181 3195.935, 3234.136 3199.966, 3234.797 3200.375 C 3236.472 3201.410, 3236.304 3206.503, 3234.546 3207.962 C 3233.396 3208.916, 3219.505 3207.460, 3167.981 3200.982 C 3132.170 3196.480, 3102.756 3192.955, 3102.616 3193.148 C 3102.099 3193.865, 3103.919 3219.773, 3105.028 3227.476 C 3106.939 3240.758, 3114.048 3260.305, 3118.228 3263.774 C 3118.993 3264.409, 3148.393 3268.550, 3183.560 3272.975 C 3218.727 3277.400, 3248.512 3281.457, 3249.750 3281.989 C 3251.208 3282.616, 3252 3283.820, 3252 3285.407 C 3252 3289.058, 3249.400 3291.154, 3245.652 3290.524 C 3240.093 3289.591, 3131.348 3276, 3129.436 3276 C 3126.923 3276, 3132.323 3281.531, 3146.500 3293.479 C 3194.845 3334.223, 3219.892 3379.530, 3222.676 3431.270 C 3223.262 3442.151, 3223.468 3443.073, 3225.405 3443.489 C 3231.517 3444.800, 3952.288 3535.030, 3956.540 3535.016 C 3962.918 3534.996, 3971.922 3532.700, 3979 3529.288 C 3985.647 3526.085, 3995.499 3516.410, 3999.226 3509.425 C 4005.352 3497.944, 4005 3510.606, 4005 3302.020 C 4005 3112.360, 4004.990 3111.424, 4002.929 3103.987 C 3996.384 3080.366, 3975.859 3060.562, 3952.754 3055.571 C 3945.101 3053.918, 2510.596 2872.916, 2506.742 2873.117 C 2505.509 2873.181, 2502.179 2873.622, 2499.341 2874.096 M 1983.596 2897.250 C 1951.502 3014.726, 1898.374 3101.769, 1831.763 3146.007 C 1812.934 3158.511, 1792.041 3168.507, 1776.214 3172.585 C 1769.697 3174.263, 1768.993 3174.687, 1768.926 3176.971 C 1768.886 3178.362, 1768.288 3187.600, 1767.598 3197.500 C 1766.908 3207.400, 1766.452 3215.648, 1766.584 3215.829 C 1766.717 3216.010, 1777.102 3212.488, 1789.663 3208.002 C 1824.088 3195.708, 1831.846 3193.880, 1853 3193.078 L 1870.500 3192.414 1982.910 3151.139 C 2060.686 3122.581, 2096.036 3110.043, 2097.645 3110.447 C 2100.935 3111.273, 2101.956 3115.814, 2099.325 3117.919 C 2098.237 3118.788, 2048.873 3137.240, 1989.626 3158.923 L 1881.905 3198.346 1888.702 3201.895 C 1893.336 3204.314, 1898.393 3208.318, 1904.588 3214.472 C 1912.521 3222.354, 1914.329 3224.833, 1918.827 3234 C 1927.271 3251.210, 1931.593 3270.061, 1934.108 3300.660 C 1934.780 3308.822, 1935.421 3315.629, 1935.535 3315.787 C 1935.648 3315.945, 1942.562 3313.582, 1950.899 3310.537 C 1968.002 3304.290, 1970.546 3303.910, 1972.124 3307.374 C 1974.151 3311.822, 1972.191 3313.144, 1953.597 3319.880 C 1943.919 3323.385, 1936.001 3326.759, 1936.002 3327.377 C 1936.003 3327.995, 1936.683 3337.725, 1937.514 3349 C 1942.103 3411.269, 1951.304 3449.902, 1970.143 3486 C 1976.160 3497.529, 1988.371 3516.624, 1993.671 3522.793 L 1996.500 3526.085 2145.500 3471.540 C 2227.450 3441.540, 2295.504 3416.559, 2296.731 3416.027 L 2298.962 3415.060 2294.923 3403.780 C 2278.623 3358.253, 2254.270 3301.415, 2226.971 3245.183 C 2219.204 3229.184, 2216.232 3223.968, 2215.061 3224.278 C 2214.202 3224.504, 2169.031 3240.980, 2114.679 3260.890 C 2053.687 3283.232, 2015.139 3296.862, 2013.980 3296.494 C 2009.821 3295.174, 2010.378 3288.781, 2014.791 3287.191 C 2058.669 3271.386, 2209.755 3215.611, 2210.402 3214.978 C 2211.857 3213.555, 2182.418 3159.908, 2157.504 3118.583 C 2148.465 3103.590, 2146.997 3101.653, 2144.594 3101.548 C 2140.660 3101.375, 2138.748 3097.525, 2140.905 3094.119 C 2142.771 3091.173, 2092.729 3017.009, 2054.120 2965.500 C 2030.466 2933.941, 1989.742 2883, 1988.169 2883 C 1987.795 2883, 1985.737 2889.412, 1983.596 2897.250 M 4338.183 3000.017 C 4283.009 3020.284, 4237.221 3037.401, 4236.433 3038.055 C 4233.419 3040.557, 4235.349 3046, 4239.250 3046 C 4241.530 3046, 4442.910 2972.319, 4444.708 2970.827 C 4446.332 2969.480, 4446.383 2965.783, 4444.800 2964.200 C 4444.140 2963.540, 4442.453 2963.038, 4441.050 2963.084 C 4439.648 2963.130, 4393.357 2979.750, 4338.183 3000.017 M 2963 3057.040 C 2951.261 3058.849, 2942.612 3063.301, 2935.529 3071.179 C 2928.424 3079.082, 2923.799 3089.725, 2920.832 3105 C 2918.987 3114.496, 2919.290 3143.950, 2921.381 3158.500 C 2926.283 3192.597, 2937.231 3232.142, 2954.740 3279 C 2971.077 3322.720, 2986.971 3357.020, 3002.020 3381.032 C 3009.352 3392.731, 3016.750 3408.079, 3020.496 3419.361 C 3026.878 3438.581, 3027.164 3441.014, 3027.988 3483 C 3028.901 3529.478, 3030.239 3538.416, 3040.037 3563.476 C 3050.803 3591.011, 3068.603 3613.824, 3107.615 3650.084 C 3136.959 3677.359, 3144.813 3710.525, 3134.509 3763.653 C 3133.212 3770.338, 3131.458 3777.147, 3130.612 3778.784 C 3126.994 3785.781, 3119.093 3789.179, 3111.315 3787.085 C 3103.672 3785.027, 3101.172 3780.667, 3082.043 3736.033 C 3047.519 3655.480, 3026.871 3630.003, 3000.102 3634.927 C 2972.492 3640.006, 2949.882 3663.977, 2941.812 3696.726 C 2938.960 3708.300, 2938.752 3730.251, 2941.369 3743.464 C 2944.924 3761.409, 2953.202 3783.355, 2963.228 3801.410 C 2970.555 3814.606, 2970.476 3814.498, 2982.027 3827 C 3016.712 3864.538, 3041.250 3897.821, 3050.460 3919.820 C 3055.009 3930.688, 3056.539 3937.694, 3059.455 3961.020 C 3062.539 3985.686, 3065.442 3997.171, 3071.996 4010.642 C 3078.123 4023.237, 3086.103 4033.925, 3097.782 4045.182 C 3106.959 4054.027, 3125.950 4068.783, 3131.651 4071.499 C 3134.232 4072.728, 3140.137 4073, 3164.294 4073 L 3193.785 4073 3188.803 4056.750 C 3183.476 4039.372, 3174.360 4013.838, 3168.408 3999.620 C 3164.839 3991.093, 3164.640 3990.847, 3159.009 3988.005 C 3140.071 3978.445, 3110.017 3948.327, 3080.889 3909.718 C 3076 3903.238, 3072 3897.083, 3072 3896.039 C 3072 3893.618, 3074.599 3891, 3077.002 3891 C 3078.208 3891, 3082.288 3895.483, 3088.608 3903.750 C 3104.461 3924.488, 3116.621 3938.652, 3130.982 3953.108 C 3143.092 3965.299, 3156.617 3976.716, 3157.684 3975.649 C 3158.365 3974.968, 3145.451 3947.596, 3133.080 3923.500 C 3108.557 3875.733, 3082.467 3831.786, 3050.702 3784.742 C 3037.786 3765.612, 3036.775 3763.788, 3037.822 3761.492 C 3038.652 3759.669, 3039.736 3759, 3041.861 3759 C 3044.465 3759, 3045.751 3760.424, 3054.280 3772.750 C 3101.073 3840.377, 3147.219 3923.689, 3175.590 3991.766 C 3189.212 4024.453, 3202.662 4064.940, 3201.623 4070.133 L 3201.050 4073 3223.025 4073 L 3245 4073 3244.994 4043.750 C 3244.984 3988.758, 3241.271 3932.818, 3233.339 3868.140 L 3230.597 3845.780 3223.048 3840.273 C 3202.287 3825.125, 3183.418 3802.092, 3170.322 3775.909 C 3164.251 3763.772, 3162.848 3758.201, 3165.341 3756.132 C 3167.277 3754.525, 3171.041 3755.010, 3172.077 3757 C 3172.506 3757.825, 3175.362 3763.720, 3178.423 3770.100 C 3184.988 3783.786, 3195.200 3799.377, 3204.856 3810.456 C 3213.325 3820.173, 3227.370 3832.439, 3227.810 3830.504 C 3228.372 3828.028, 3220.969 3784.562, 3219.463 3781.500 C 3218.652 3779.850, 3215.244 3775.350, 3211.889 3771.500 C 3196.471 3753.804, 3176.678 3720.867, 3164.489 3692.623 C 3160.534 3683.460, 3159.965 3681.373, 3160.876 3679.373 C 3161.676 3677.618, 3162.765 3677, 3165.061 3677 C 3167.958 3677, 3168.375 3677.483, 3171.313 3684.250 C 3177.157 3697.708, 3188.795 3720.432, 3195.501 3731.477 C 3204.572 3746.418, 3215.437 3761.594, 3215.789 3759.816 C 3215.948 3759.013, 3213.782 3747.364, 3210.977 3733.928 C 3179.167 3581.603, 3128.249 3428.788, 3059.262 3278.597 C 3046.765 3251.390, 3021.796 3201.350, 3009.571 3179.013 C 3004.307 3169.396, 3000 3161.028, 3000 3160.418 C 3000 3158.864, 3003.354 3156, 3005.174 3156 C 3008.141 3156, 3011.101 3160.899, 3030.245 3197.500 C 3066.510 3266.832, 3106.871 3359.149, 3136.920 3441.500 C 3141.937 3455.250, 3146.401 3467.367, 3146.840 3468.427 C 3147.469 3469.948, 3147.984 3469.106, 3149.285 3464.427 C 3155.856 3440.785, 3156.686 3404.803, 3151.381 3373.517 C 3149.870 3364.604, 3149.875 3364.520, 3152.040 3362.767 C 3154.785 3360.544, 3155.555 3360.555, 3157.851 3362.851 C 3160.214 3365.214, 3162.708 3380.759, 3164.034 3401.387 C 3165.735 3427.848, 3162.755 3455.163, 3155.892 3476.011 L 3152.761 3485.522 3160.950 3510.511 C 3214.573 3674.141, 3244.967 3830.046, 3252.965 3982.500 C 3253.514 3992.950, 3254.268 4017.588, 3254.641 4037.250 L 3255.320 4073 3299.182 4073 L 3343.043 4073 3343.931 4070.750 C 3344.419 4069.512, 3346.264 4062.425, 3348.032 4055 C 3366.177 3978.783, 3414.788 3896.918, 3484.606 3825 L 3496.740 3812.500 3497.292 3795.500 C 3497.734 3781.887, 3498.356 3776.448, 3500.418 3768.203 C 3504.734 3750.936, 3512.119 3735.002, 3522.643 3720.250 C 3526.259 3715.180, 3527.620 3714, 3529.851 3714 C 3532.995 3714, 3535 3715.612, 3535 3718.139 C 3535 3719.096, 3532.587 3723.242, 3529.637 3727.353 C 3516.288 3745.959, 3508.107 3769.276, 3506.430 3793.500 L 3505.737 3803.500 3508.119 3801.425 C 3509.428 3800.284, 3515.225 3795.091, 3521 3789.885 C 3542.288 3770.692, 3572.993 3746.315, 3590.645 3734.592 C 3599.385 3728.787, 3603.310 3728.529, 3603.812 3733.727 C 3604.088 3736.588, 3603.586 3737.326, 3599.391 3740.227 C 3546.336 3776.920, 3493.647 3825.365, 3453.900 3874 C 3436.942 3894.750, 3408.116 3935.449, 3409.440 3936.773 C 3410.709 3938.043, 3446.514 3917.395, 3467.969 3903.021 C 3480.819 3894.412, 3515.438 3868.719, 3516.497 3867.005 C 3517.359 3865.611, 3522.344 3865.744, 3523.800 3867.200 C 3526.966 3870.366, 3525.194 3872.759, 3512.250 3882.805 C 3477.599 3909.696, 3452.108 3926.109, 3419.500 3942.524 L 3399.500 3952.592 3389.395 3972.606 C 3379.191 3992.816, 3369.886 4015.149, 3364.025 4033.500 C 3360.529 4044.445, 3354 4069.221, 3354 4071.543 C 3354 4072.785, 3358.259 4073, 3382.918 4073 C 3398.823 4073, 3412.551 4072.726, 3413.425 4072.390 C 3415.599 4071.556, 3426.020 4058.457, 3429.888 4051.696 C 3436.156 4040.741, 3437.185 4036.192, 3437.962 4016 C 3438.607 3999.264, 3438.923 3996.902, 3441.278 3991.224 C 3447.510 3976.198, 3460.957 3960.922, 3481.692 3945.314 C 3496.627 3934.071, 3511.518 3924.833, 3551 3902.315 C 3599.398 3874.713, 3611.252 3866.893, 3623.431 3854.533 C 3638.435 3839.306, 3646.137 3813.201, 3644.663 3782.570 C 3642.629 3740.277, 3624.084 3699.246, 3600.859 3685.654 C 3584.323 3675.976, 3553.294 3679.340, 3518.643 3694.567 C 3492.492 3706.059, 3467.531 3725.375, 3455.538 3743.400 C 3451.178 3749.952, 3449.054 3754.778, 3444.488 3768.505 C 3431.300 3808.152, 3417.063 3835.974, 3402.525 3850.512 C 3398.043 3854.994, 3393.713 3857.975, 3385.977 3861.903 C 3372.982 3868.503, 3368.066 3872.067, 3359.642 3880.997 C 3354.626 3886.314, 3351.825 3890.505, 3348.104 3898.259 C 3342.719 3909.481, 3340.050 3912, 3333.546 3912 C 3327.712 3912, 3324.667 3909.683, 3315.557 3898.311 C 3299.060 3877.720, 3288.085 3858.944, 3281.612 3840.241 C 3276.302 3824.900, 3274.633 3814.806, 3274.628 3798 C 3274.622 3782.216, 3276.032 3773.339, 3281.058 3757.500 C 3284.754 3745.852, 3288.482 3730.938, 3290.682 3719 C 3293.213 3705.270, 3293.208 3671.786, 3290.674 3660.024 C 3286.111 3638.845, 3277.508 3619.002, 3265.678 3602.366 C 3262.280 3597.587, 3253.732 3587.563, 3246.682 3580.089 C 3226.916 3559.135, 3217.765 3545.958, 3211.991 3530.137 C 3204.984 3510.939, 3204.451 3493.074, 3210.031 3464.500 C 3212.955 3449.528, 3213.123 3447.472, 3212.652 3432.500 C 3212.358 3423.156, 3211.457 3413.380, 3210.486 3409 C 3201.297 3367.564, 3178.435 3332.780, 3138.500 3299.480 C 3113.254 3278.428, 3102.087 3261.524, 3096.893 3236.500 C 3095.815 3231.307, 3094.379 3216.926, 3093.498 3202.500 C 3090.303 3150.179, 3085.996 3132.960, 3071.217 3113.418 C 3063.751 3103.547, 3049.143 3089.486, 3038.304 3081.739 C 3013.694 3064.147, 2982.747 3053.997, 2963 3057.040 M 3689.500 3099.626 C 3668.908 3102.729, 3653.636 3107.465, 3637.961 3115.609 C 3605.923 3132.256, 3581.157 3161.521, 3569.596 3196.396 C 3563.869 3213.672, 3562.595 3222.692, 3562.592 3246 C 3562.590 3265.510, 3562.837 3268.662, 3565.262 3280.058 C 3576.104 3331.012, 3606.433 3375.209, 3650.500 3404.274 C 3666.910 3415.098, 3687.876 3424.616, 3705 3429.017 C 3763.014 3443.928, 3818.226 3429.888, 3855.630 3390.713 C 3876.025 3369.353, 3889.110 3342.127, 3893.594 3311.723 C 3895.838 3296.509, 3895.058 3267.917, 3892.007 3253.500 C 3876.006 3177.901, 3814.905 3116.832, 3740.379 3101.949 C 3732.132 3100.303, 3725.024 3099.704, 3711 3099.475 C 3700.825 3099.310, 3691.150 3099.377, 3689.500 3099.626 M 2611.932 3124.126 C 2610.318 3127.142, 2612.120 3130.582, 2615.664 3131.251 C 2617.224 3131.545, 2642.876 3134.844, 2672.670 3138.582 C 2731.451 3145.956, 2730 3145.922, 2730 3139.937 C 2730 3138.386, 2729.561 3136.847, 2729.025 3136.515 C 2728.015 3135.891, 2619.210 3122.009, 2615.285 3122.003 C 2614.048 3122.001, 2612.568 3122.938, 2611.932 3124.126 M 1518.500 3145.757 C 1479.374 3147.436, 1429.671 3155.781, 1392.020 3166.994 L 1385.441 3168.953 1376.665 3196.227 C 1289.089 3468.400, 1240.613 3632.066, 1225.923 3705.167 C 1223.320 3718.118, 1223.451 3717.976, 1214.125 3718.015 C 1212.131 3718.024, 1210.014 3718.361, 1209.420 3718.765 C 1208.826 3719.169, 1206.883 3732.100, 1205.102 3747.500 C 1203.321 3762.900, 1201.611 3777.525, 1201.302 3780 C 1200.838 3783.718, 1200.972 3784.283, 1202.070 3783.250 C 1203.894 3781.535, 1207.489 3781.680, 1209.025 3783.530 C 1209.730 3784.380, 1210.893 3791.116, 1211.643 3798.692 C 1212.385 3806.191, 1213.106 3812.439, 1213.246 3812.578 C 1213.596 3812.927, 1571.332 3681.930, 1572.192 3681.137 C 1572.573 3680.787, 1572.228 3675.550, 1571.426 3669.500 C 1561.314 3593.265, 1546.618 3473.478, 1541.306 3424 C 1538.882 3401.421, 1538.566 3394.605, 1538.552 3364.500 C 1538.533 3326.456, 1539.029 3320.631, 1546.475 3271.500 C 1548.891 3255.550, 1551.350 3239.125, 1551.937 3235 C 1553.749 3222.283, 1556 3196.093, 1556 3187.729 L 1556 3179.779 1546.233 3169.549 C 1540.862 3163.923, 1534.224 3156.349, 1531.483 3152.718 C 1528.743 3149.087, 1526.050 3145.978, 1525.500 3145.808 C 1524.950 3145.639, 1521.800 3145.616, 1518.500 3145.757 M 1539.167 3145.951 C 1539.350 3146.475, 1543.100 3151.033, 1547.500 3156.081 L 1555.500 3165.259 1555.797 3157.383 C 1556.269 3144.827, 1556.394 3145, 1546.898 3145 C 1542.229 3145, 1538.974 3145.401, 1539.167 3145.951 M 3687.571 3159.571 C 3685.006 3162.137, 3685.438 3172.236, 3688.254 3175.509 C 3690.452 3178.064, 3691.479 3178.254, 3729.004 3183.052 C 3750.177 3185.760, 3767.580 3187.980, 3767.679 3187.987 C 3767.777 3187.994, 3768.564 3187.293, 3769.429 3186.429 C 3770.531 3185.326, 3771 3182.939, 3771 3178.429 C 3771 3171.478, 3769.346 3168.581, 3764.775 3167.525 C 3762.867 3167.084, 3691.233 3158, 3689.664 3158 C 3689.378 3158, 3688.436 3158.707, 3687.571 3159.571 M 3704 3215.051 L 3704 3240.102 3700.250 3241.598 C 3698.188 3242.420, 3693.146 3244.717, 3689.046 3246.702 C 3674.631 3253.681, 3662.748 3268.884, 3658.330 3286 C 3655.946 3295.235, 3656.195 3311.241, 3658.879 3321.337 C 3665.292 3345.456, 3683.449 3366.953, 3706.325 3377.511 C 3717.988 3382.893, 3724.987 3384.386, 3738.500 3384.372 C 3748.794 3384.361, 3751.637 3383.981, 3758.500 3381.702 C 3798.705 3368.348, 3812.966 3320.719, 3788.855 3280.322 C 3783.979 3272.153, 3770.949 3258.777, 3762.140 3252.899 C 3757.938 3250.095, 3754.275 3247.584, 3754 3247.319 C 3753.725 3247.054, 3753.275 3235.295, 3753 3221.187 L 3752.500 3195.536 3731 3192.814 C 3719.175 3191.317, 3708.262 3190.072, 3706.750 3190.046 L 3704 3190 3704 3215.051 M 2612.011 3203.487 C 2610.380 3205.452, 2611.509 3209.709, 2613.859 3210.455 C 2618.859 3212.042, 2867.658 3242.717, 2869.132 3241.929 C 2870.030 3241.448, 2871.053 3240.305, 2871.405 3239.387 C 2872.199 3237.318, 2869.499 3233, 2867.411 3233 C 2866.563 3233, 2810.606 3226.025, 2743.064 3217.500 C 2675.522 3208.975, 2618.682 3202, 2616.752 3202 C 2614.823 3202, 2612.690 3202.669, 2612.011 3203.487 M 1825.646 3206.439 C 1818.265 3208.392, 1767.395 3225.675, 1766.091 3226.672 C 1765.865 3226.845, 1764.868 3238.126, 1763.875 3251.743 C 1755.873 3361.384, 1745.223 3471.051, 1731.912 3580.865 C 1729.154 3603.616, 1727.033 3622.763, 1727.199 3623.414 C 1727.389 3624.163, 1774.781 3607.277, 1856.305 3577.411 C 1927.147 3551.458, 1985.329 3530.004, 1985.598 3529.736 C 1985.866 3529.467, 1982.967 3524.804, 1979.155 3519.374 C 1946.431 3472.755, 1932.757 3425.531, 1927.436 3340.750 C 1927.065 3334.838, 1926.593 3330, 1926.387 3330 C 1926.182 3330, 1905.198 3337.603, 1879.757 3346.895 C 1854.316 3356.187, 1832.511 3364.085, 1831.301 3364.446 C 1829.148 3365.089, 1825 3362.235, 1825 3360.111 C 1825 3356.970, 1831.770 3354.036, 1877.341 3337.428 L 1926.183 3319.627 1925.526 3310.564 C 1923.492 3282.513, 1919.595 3260.657, 1914.078 3246.356 C 1906.376 3226.391, 1892.417 3212.326, 1873.944 3205.917 L 1867.388 3203.642 1849.189 3210.321 C 1839.180 3213.994, 1829.858 3217, 1828.474 3217 C 1825.362 3217, 1823.237 3213.186, 1824.796 3210.400 C 1825.356 3209.400, 1828.443 3207.574, 1831.657 3206.342 C 1839.211 3203.448, 1836.802 3203.486, 1825.646 3206.439 M 3287.035 3208.934 C 3285.598 3211.620, 3285.742 3213.541, 3287.489 3214.991 C 3289.193 3216.405, 3349.571 3224.262, 3352.248 3223.418 C 3353.209 3223.115, 3354.280 3221.734, 3354.627 3220.349 C 3355.873 3215.385, 3354.161 3214.874, 3322.764 3210.834 C 3288.312 3206.401, 3288.389 3206.405, 3287.035 3208.934 M 4015 3266.151 C 4015 3284.384, 4015.266 3289, 4016.317 3289 C 4018.893 3289, 4445.688 3352.943, 4447.338 3353.576 C 4449.647 3354.462, 4450.613 3358.820, 4448.880 3360.532 C 4448.121 3361.282, 4267.283 3443.859, 4047.017 3544.037 C 3826.751 3644.215, 3645.819 3726.562, 3644.945 3727.029 C 3643.529 3727.787, 3643.650 3728.782, 3646.065 3736.190 C 3648.620 3744.029, 3652.572 3761.901, 3653.210 3768.500 C 3653.369 3770.150, 3654.013 3771.404, 3654.640 3771.287 C 3656.112 3771.011, 4485.403 3393.835, 4493.290 3389.854 C 4515.506 3378.639, 4522.410 3350.445, 4508.051 3329.574 C 4503.876 3323.506, 4495.653 3317.418, 4488.381 3315.010 C 4484.877 3313.850, 4390.159 3299.294, 4254 3278.991 C 4128.325 3260.251, 4023.137 3244.554, 4020.250 3244.110 L 4015 3243.303 4015 3266.151 M 3665.200 3291.200 C 3663.569 3292.831, 3663.686 3296.495, 3665.415 3297.930 C 3667.633 3299.770, 3787.716 3314.667, 3789.803 3313.360 C 3791.994 3311.989, 3792.513 3307.670, 3790.671 3306.142 C 3789.454 3305.132, 3675.018 3290, 3668.600 3290 C 3667.390 3290, 3665.860 3290.540, 3665.200 3291.200 M 4015 3393.975 C 4015 3497.019, 4014.960 3497.929, 4009.912 3509.706 C 4006.889 3516.758, 3999.455 3526.594, 3993.724 3531.124 C 3982.447 3540.038, 3970.082 3544.278, 3955.500 3544.231 C 3949.736 3544.213, 3816.665 3527.805, 3585.420 3498.601 C 3386.825 3473.521, 3223.862 3453, 3223.278 3453 C 3221.993 3453, 3221.784 3453.807, 3218.486 3471.500 C 3210.852 3512.455, 3218.955 3536.806, 3251.627 3571.087 C 3265.402 3585.540, 3269.258 3590.245, 3276.955 3601.992 C 3287.610 3618.255, 3294.737 3635.293, 3299.176 3655.119 C 3301.260 3664.429, 3301.498 3667.977, 3301.477 3689.500 C 3301.451 3716.328, 3300.272 3725.147, 3293.517 3749 C 3285.015 3779.023, 3284.800 3780.058, 3284.282 3793.500 C 3283.684 3809.030, 3285.364 3820.355, 3290.579 3835.940 C 3293.877 3845.799, 3304.026 3866.947, 3306.407 3868.923 C 3307.111 3869.507, 3326.080 3861.362, 3359.456 3846.145 L 3411.410 3822.457 3416.660 3811.979 C 3423.195 3798.934, 3428.837 3784.788, 3435.056 3765.848 C 3440.632 3748.867, 3443.409 3742.970, 3450.057 3734 C 3470.683 3706.168, 3516.665 3679.535, 3556.239 3672.499 C 3569.497 3670.142, 3589.915 3670.793, 3598.342 3673.842 C 3612.566 3678.988, 3626.425 3693.003, 3635.928 3711.850 C 3638.490 3716.931, 3639.510 3718.100, 3641.036 3717.701 C 3642.085 3717.427, 3819.383 3636.951, 4035.031 3538.867 C 4310.533 3413.560, 4426.581 3360.321, 4425.310 3359.821 C 4424.314 3359.429, 4332.375 3345.558, 4221 3328.996 C 4109.625 3312.434, 4017.713 3298.654, 4016.750 3298.374 C 4015.092 3297.892, 4015 3302.915, 4015 3393.975 M 2107.500 3495.649 C 1897.950 3572.408, 1726.174 3635.511, 1725.776 3635.879 C 1724.495 3637.063, 1718.329 3685, 1719.458 3685.004 C 1720.737 3685.009, 2576.116 3371.778, 2575.757 3371.436 C 2575.616 3371.302, 2562.225 3369.560, 2546 3367.566 C 2513.045 3363.515, 2503.962 3361.842, 2496.126 3358.376 C 2493.170 3357.069, 2490.245 3356.019, 2489.626 3356.043 C 2489.007 3356.067, 2317.050 3418.889, 2107.500 3495.649 M 2157.268 3535.284 L 1717.036 3696.500 1716.513 3699.500 C 1716.226 3701.150, 1713.687 3718.025, 1710.872 3737 C 1708.056 3755.975, 1705.395 3772.444, 1704.959 3773.597 C 1704.440 3774.968, 1702.580 3776.138, 1699.583 3776.977 L 1695 3778.260 1695 3803.130 C 1695 3828, 1695 3828, 1697 3826 C 1700.732 3822.268, 1702.667 3823.359, 1706.755 3831.500 C 1717.840 3853.574, 1735.408 3904.092, 1755.267 3971 C 1762.454 3995.216, 1763.433 3999.455, 1763.464 4006.500 C 1763.506 4016.185, 1760.537 4023.540, 1754.041 4029.844 C 1748.107 4035.603, 1742.597 4037.906, 1729.770 4039.990 C 1706.370 4043.791, 1695.150 4044.501, 1659 4044.466 C 1620.492 4044.430, 1611.071 4043.606, 1603.232 4039.592 C 1593.672 4034.696, 1586.538 4024.576, 1585.367 4014.249 C 1584.682 4008.216, 1602.731 3825.029, 1604.182 3823.281 C 1605.584 3821.591, 1609.460 3821.645, 1610.895 3823.374 C 1611.523 3824.130, 1613.134 3827.392, 1614.476 3830.624 C 1615.818 3833.856, 1616.932 3836.050, 1616.953 3835.500 C 1616.974 3834.950, 1616.095 3825.500, 1615 3814.500 C 1613.905 3803.500, 1613.007 3793.777, 1613.005 3792.894 C 1613.001 3791.627, 1611.465 3791.148, 1605.750 3790.629 C 1601.763 3790.267, 1595.960 3789.478, 1592.855 3788.876 L 1587.211 3787.781 1586.179 3780.641 C 1585.612 3776.713, 1584.368 3767.499, 1583.416 3760.164 C 1581.781 3747.579, 1581.566 3746.851, 1579.592 3747.251 C 1578.063 3747.561, 1229.211 3875.097, 1217.750 3879.536 C 1216.436 3880.045, 1215.996 3881.370, 1215.983 3884.857 C 1215.934 3897.916, 1206.994 3923.756, 1186.524 3970 C 1166.942 4014.241, 1162.326 4021.840, 1150.860 4028.713 C 1140.813 4034.735, 1136.607 4035.246, 1096 4035.380 L 1059.500 4035.500 1054.117 4032.666 C 1038.123 4024.245, 1028.903 4008.485, 1028.864 3989.502 C 1028.842 3978.818, 1029.470 3976.136, 1036.196 3958.177 C 1038.941 3950.849, 1041.032 3944.734, 1040.843 3944.588 C 1040.655 3944.441, 983.260 3965.287, 913.300 3990.911 C 809.030 4029.101, 786.587 4037.638, 788.800 4038.265 C 790.285 4038.685, 1124.500 4098.432, 1531.500 4171.034 C 2132.920 4278.318, 2274.355 4303.260, 2286.744 4304.220 C 2319.722 4306.777, 2355.243 4301.050, 2386.919 4288.069 C 2395.910 4284.385, 3051.849 3986.402, 3052.704 3985.613 C 3052.817 3985.509, 3051.579 3974.945, 3049.953 3962.136 C 3046.819 3937.438, 3044.805 3929.480, 3038.585 3917.217 C 3027.738 3895.834, 3005.807 3867.068, 2975.522 3834.500 C 2963.266 3821.321, 2957.418 3812.432, 2947.872 3792.476 C 2920.417 3735.081, 2924.727 3679.192, 2959.136 3646.443 C 2974.759 3631.573, 2991.687 3624.313, 3008.657 3625.204 C 3015.623 3625.569, 3018.022 3626.201, 3024.387 3629.347 C 3045.622 3639.842, 3063.652 3668.104, 3092.988 3736.882 C 3109.866 3776.453, 3110.739 3778, 3116.174 3778 C 3121.109 3778, 3122.493 3775.378, 3125.464 3760.396 C 3128.789 3743.629, 3129.974 3719.336, 3128.048 3707.399 C 3124.469 3685.211, 3114.922 3669.123, 3094.663 3651.140 C 3051.576 3612.895, 3029.070 3576.111, 3020.851 3530.500 C 3018.940 3519.897, 3018.667 3514.483, 3018.505 3484 C 3018.397 3463.575, 3017.877 3447.456, 3017.232 3444.489 C 3014.377 3431.360, 3012.686 3426, 3011.401 3426 C 3010.655 3426, 2917.264 3414.300, 2803.866 3400 C 2690.467 3385.700, 2597.645 3374.015, 2597.593 3374.034 C 2597.542 3374.053, 2399.396 3446.615, 2157.268 3535.284 M 2810.201 3565.498 C 2763.287 3582.734, 2724.250 3597.378, 2723.451 3598.040 C 2720.434 3600.545, 2722.334 3606, 2726.223 3606 C 2728.953 3606, 2898.221 3543.939, 2900.250 3542.195 C 2901.213 3541.367, 2902 3539.930, 2902 3539 C 2902 3536.968, 2898.903 3533.968, 2896.921 3534.081 C 2896.140 3534.125, 2857.116 3548.263, 2810.201 3565.498 M 778.750 3591.958 C 726.638 3611.096, 683.325 3627.315, 682.500 3628 C 679.459 3630.524, 681.294 3636, 685.182 3636 C 687.401 3636, 877.977 3566.264, 879.728 3564.811 C 881.334 3563.478, 881.375 3559.775, 879.800 3558.200 C 879.140 3557.540, 877.452 3557.036, 876.050 3557.081 C 874.648 3557.126, 830.863 3572.820, 778.750 3591.958 M 2515.500 3673.392 C 2364.614 3728.780, 2362.496 3729.594, 2362.178 3732.338 C 2361.808 3735.532, 2363.461 3738, 2365.970 3738 C 2368.272 3738, 2672.761 3626.443, 2674.580 3624.933 C 2677.698 3622.346, 2674.975 3616.889, 2670.679 3617.114 C 2669.480 3617.177, 2599.650 3642.502, 2515.500 3673.392 M 1024.500 3649.805 C 974.660 3668.110, 973.493 3668.599, 973.178 3671.328 C 972.814 3674.483, 974.449 3676.996, 976.872 3677.008 C 978.884 3677.017, 1080.018 3640.123, 1081.750 3638.747 C 1083.338 3637.487, 1083.366 3633.766, 1081.800 3632.200 C 1081.140 3631.540, 1079.452 3631.017, 1078.050 3631.037 C 1076.648 3631.058, 1052.550 3639.504, 1024.500 3649.805 M 1394 3757.028 L 1214.500 3822.800 1214.543 3828.150 C 1214.661 3842.576, 1216.394 3869, 1217.223 3869 C 1218.121 3869, 1579.137 3737.020, 1579.842 3736.434 C 1580.354 3736.008, 1575.011 3694.755, 1574.200 3692.878 C 1573.605 3691.498, 1546.639 3701.098, 1394 3757.028 M 846.077 3715.103 C 817.794 3725.520, 794.056 3734.538, 793.327 3735.144 C 790.344 3737.619, 792.441 3743, 796.388 3743 C 799.224 3743, 900.143 3706.007, 902.250 3704.195 C 903.212 3703.367, 904 3701.892, 904 3700.916 C 904 3698.640, 901.344 3695.976, 899.179 3696.081 C 898.255 3696.126, 874.359 3704.686, 846.077 3715.103 M 1135 3745.595 L 1135 3779 1152.889 3779 C 1168.490 3779, 1171.037 3779.224, 1172.800 3780.750 C 1174.198 3781.959, 1175.643 3786.053, 1177.477 3794 C 1178.937 3800.325, 1180.585 3807.245, 1181.139 3809.378 L 1182.146 3813.256 1185.556 3808.193 L 1188.966 3803.130 1193.487 3764.315 C 1195.974 3742.967, 1198.240 3724.102, 1198.523 3722.392 L 1199.037 3719.285 1180.769 3718.713 C 1163.228 3718.164, 1152.910 3716.867, 1140.682 3713.674 L 1135 3712.190 1135 3745.595 M 2692.500 3777.346 C 2629.250 3800.564, 2576.938 3819.910, 2576.250 3820.339 C 2575.563 3820.767, 2575 3822.426, 2575 3824.024 C 2575 3831.064, 2569.900 3832.648, 2696.264 3786.373 C 2791.297 3751.573, 2813.440 3743.130, 2814.231 3741.392 C 2815.673 3738.227, 2813.614 3734.983, 2810.215 3735.066 C 2808.722 3735.103, 2755.750 3754.129, 2692.500 3777.346 M 1677.500 3783.137 C 1667.182 3785.913, 1643.526 3789.852, 1632.534 3790.625 C 1627.253 3790.996, 1622.786 3791.570, 1622.606 3791.900 C 1622.284 3792.491, 1625.646 3827.084, 1626.309 3830 C 1626.531 3830.979, 1627.319 3830.336, 1628.575 3828.152 C 1631.977 3822.235, 1634.099 3819.990, 1638.345 3817.819 C 1642.385 3815.752, 1642.914 3815.728, 1657.500 3816.931 C 1675.348 3818.403, 1679.879 3819.962, 1682.888 3825.664 L 1684.912 3829.500 1684.956 3805.250 C 1684.980 3791.912, 1684.888 3781.057, 1684.750 3781.127 C 1684.612 3781.196, 1681.350 3782.101, 1677.500 3783.137 M 1123.516 3790.250 C 1120.065 3800.484, 1105.474 3838.541, 1100.918 3849.192 C 1093.158 3867.335, 1090.020 3873.465, 1079.517 3891 C 1068.162 3909.958, 1055.693 3935.109, 1048.189 3954.189 C 1037.319 3981.833, 1036.114 3988.720, 1039.975 4001.145 C 1043.766 4013.344, 1052.266 4022.470, 1062.788 4025.637 C 1068.113 4027.239, 1083.925 4027.355, 1114.770 4026.017 C 1134.616 4025.156, 1136.439 4024.915, 1141.993 4022.423 C 1150.203 4018.738, 1156.638 4011.665, 1161.961 4000.471 C 1185.842 3950.260, 1203.515 3905.626, 1206.098 3889 C 1206.861 3884.094, 1207.048 3875.447, 1206.641 3864 C 1205.852 3841.871, 1202.997 3803.750, 1202.050 3802.716 C 1201.655 3802.284, 1197.142 3808.247, 1192.023 3815.966 C 1183.711 3828.497, 1182.412 3830, 1179.892 3830 C 1178.223 3830, 1176.694 3829.285, 1176.148 3828.250 C 1175.641 3827.287, 1173.263 3818.065, 1170.863 3807.757 L 1166.500 3789.013 1145.219 3789.007 C 1129.080 3789.002, 1123.835 3789.302, 1123.516 3790.250 M 1643.214 3826.113 C 1641.957 3826.580, 1640.157 3828.372, 1639.214 3830.095 C 1637.379 3833.448, 1621.330 3853.995, 1619.560 3855.256 C 1617.333 3856.843, 1614.479 3855.368, 1612.293 3851.500 C 1610.566 3848.443, 1610.029 3848.001, 1610.016 3849.623 C 1610.007 3850.791, 1606.595 3886.116, 1602.434 3928.123 C 1598.273 3970.130, 1594.853 4007.056, 1594.834 4010.181 C 1594.773 4020.443, 1601.521 4029.547, 1611.389 4032.517 C 1618.728 4034.725, 1650.452 4036.351, 1672.500 4035.648 C 1698.666 4034.813, 1728.238 4031.556, 1738.032 4028.431 C 1747.642 4025.363, 1754 4016.784, 1754 4006.883 C 1754 3999.586, 1736.884 3941.256, 1721.463 3896 C 1713.332 3872.138, 1701.171 3841, 1699.983 3841 C 1699.502 3841, 1697.462 3844.135, 1695.448 3847.966 C 1689.205 3859.848, 1686.241 3858.795, 1679.509 3842.302 C 1676.859 3835.811, 1674.161 3829.916, 1673.513 3829.203 C 1672.832 3828.453, 1668.148 3827.511, 1662.417 3826.971 C 1656.963 3826.457, 1650.925 3825.862, 1649 3825.650 C 1647.075 3825.437, 1644.471 3825.646, 1643.214 3826.113 M 2445.042 3867.967 C 2401.890 3883.814, 2365.777 3897.283, 2364.792 3897.898 C 2361.239 3900.117, 2363.162 3905.986, 2367.450 3906.012 C 2369.671 3906.026, 2525.691 3849.279, 2527.750 3847.708 C 2529.723 3846.203, 2529.279 3841.220, 2527.066 3840.035 C 2526.002 3839.466, 2524.764 3839.035, 2524.316 3839.077 C 2523.867 3839.120, 2488.194 3852.120, 2445.042 3867.967 M 3356.755 3857.850 C 3334.346 3868.108, 3315.222 3876.998, 3314.258 3877.608 C 3312.675 3878.607, 3313.063 3879.444, 3318.250 3886.216 C 3321.410 3890.342, 3325.977 3895.845, 3328.399 3898.446 C 3333.536 3903.963, 3335.653 3903.715, 3337.867 3897.340 C 3340.262 3890.443, 3347.051 3879.984, 3353.721 3872.913 C 3360.982 3865.216, 3369.003 3859.573, 3382.529 3852.648 C 3390.945 3848.340, 3402.439 3838.861, 3398.958 3839.100 C 3398.156 3839.155, 3379.165 3847.593, 3356.755 3857.850 M 901.160 3937.467 C 804.724 3972.837, 723.959 4002.615, 721.684 4003.638 C 716.420 4006.007, 706.938 4015.241, 704.142 4020.722 C 695.526 4037.610, 698.138 4057.681, 710.699 4071.109 C 716.017 4076.794, 721.428 4080.139, 729 4082.420 C 737.014 4084.835, 2256.998 4355.786, 2273 4357.652 C 2289.359 4359.560, 2324.884 4359.006, 2340.804 4356.595 C 2362.927 4353.244, 2388.476 4346.312, 2407.500 4338.499 C 2415.135 4335.363, 3066.521 4039.297, 3072.265 4036.351 L 3075.029 4034.933 3071.152 4029.217 C 3066.181 4021.888, 3061.430 4012.478, 3057.916 4003 C 3056.387 3998.875, 3054.767 3995.584, 3054.318 3995.686 C 3053.868 3995.788, 2905.051 4063.405, 2723.614 4145.945 C 2542.176 4228.486, 2389.550 4297.583, 2384.444 4299.496 C 2371.607 4304.304, 2355.711 4308.595, 2341.500 4311.089 C 2326.349 4313.749, 2294.118 4314.776, 2278.184 4313.108 C 2272.104 4312.471, 1931.738 4252.105, 1521.815 4178.962 C 1111.892 4105.818, 773.654 4045.477, 770.176 4044.871 C 765.180 4044, 763.636 4043.295, 762.823 4041.511 C 762.116 4039.960, 762.119 4038.646, 762.832 4037.314 C 763.600 4035.878, 800.633 4021.912, 905.360 3983.560 L 1046.851 3931.745 1054.405 3916.623 C 1060.428 3904.566, 1069.558 3888.403, 1078.342 3874.250 C 1078.817 3873.485, 1078.610 3873.030, 1077.809 3873.078 C 1077.089 3873.121, 997.597 3902.096, 901.160 3937.467 M 1179.667 3914.250 C 1178.328 3916.037, 1170.768 3930.283, 1162.866 3945.907 C 1146.823 3977.630, 1142.305 3983.894, 1131.200 3989.813 C 1120.432 3995.552, 1116.859 3996, 1081.861 3996 C 1054.360 3996, 1049.934 3996.209, 1048.571 3997.571 C 1046.729 3999.414, 1046.629 4000.438, 1048.035 4003.066 C 1049.028 4004.920, 1050.482 4005, 1083.325 4005 C 1121.176 4005, 1124.241 4004.631, 1135.419 3998.724 C 1138.801 3996.937, 1144.658 3992.371, 1148.616 3988.438 C 1155.331 3981.764, 1156.422 3979.991, 1168.001 3956.933 C 1174.749 3943.495, 1182.235 3929.028, 1184.635 3924.785 C 1189.532 3916.129, 1189.767 3915.004, 1187.171 3912.655 C 1184.448 3910.190, 1182.379 3910.630, 1179.667 3914.250 M 1636.783 3937.578 C 1635.947 3939.411, 1635.913 3940.638, 1636.663 3941.828 C 1637.607 3943.325, 1641.090 3943.528, 1669.989 3943.764 C 1703.923 3944.042, 1705 3943.913, 1705 3939.578 C 1705 3935.086, 1704.347 3935, 1670.279 3935 L 1637.957 3935 1636.783 3937.578 M 1075.050 3938.440 C 1074.393 3939.231, 1074.001 3941.144, 1074.178 3942.690 L 1074.500 3945.500 1105 3945.766 C 1132.786 3946.008, 1135.611 3945.880, 1136.750 3944.325 C 1138.414 3942.052, 1138.326 3940.469, 1136.429 3938.571 C 1135.071 3937.214, 1130.860 3937, 1105.551 3937 C 1081.268 3937, 1076.040 3937.247, 1075.050 3938.440 M 1606.394 3999.416 C 1606.095 4000.194, 1605.997 4002.107, 1606.175 4003.666 C 1606.460 4006.153, 1607.111 4006.653, 1611.500 4007.749 C 1620.706 4010.049, 1643.335 4012.953, 1660.836 4014.080 C 1685.742 4015.684, 1713.271 4013.601, 1736.255 4008.374 C 1743.899 4006.635, 1746.003 4004.496, 1744.124 4000.374 C 1742.776 3997.414, 1741.865 3997.417, 1726.721 4000.437 C 1695.864 4006.590, 1661.893 4006.583, 1625.072 4000.416 C 1608.234 3997.596, 1607.115 3997.536, 1606.394 3999.416 M 3065 4140.037 C 3065 4199.687, 3065.480 4209.729, 3069.155 4227 C 3086.942 4310.578, 3155.865 4372.646, 3241.211 4381.942 C 3335.935 4392.260, 3426.790 4328.605, 3450.407 4235.373 C 3456.182 4212.575, 3456.434 4208.734, 3456.469 4143 L 3456.500 4082.500 3260.750 4082.247 L 3065 4081.995 3065 4140.037" stroke="none" fill="#000000" fill-rule="evenodd"/>
</svg>