<svg xmlns="http://www.w3.org/2000/svg" width="767" height="144" viewBox="0 0 767 144" version="1.1">
	<path d="M 50 69.500 L 50 116 60 116 L 70 116 70 104.513 L 70 93.025 74.115 90.427 C 76.754 88.762, 78.575 88.175, 79.193 88.793 C 79.723 89.323, 83.384 95.549, 87.328 102.628 L 94.500 115.500 105.250 115.784 C 112.724 115.981, 116 115.724, 116 114.941 C 116 114.321, 111.226 105.064, 105.391 94.369 L 94.781 74.924 99.672 69.712 C 107.193 61.697, 116 49.752, 116 47.566 C 116 47.255, 113.154 47, 109.677 47 L 103.353 47 98.586 53.977 C 93.475 61.457, 81.189 74.539, 74.250 79.891 L 70 83.168 70 53.084 L 70 23 60 23 L 50 23 50 69.500 M 402.534 33.250 C 401.501 37.862, 389 112.775, 389 114.356 C 389 115.726, 390.173 116, 396.031 116 C 400.768 116, 403.198 115.592, 403.478 114.750 C 403.707 114.063, 405.059 101.800, 406.483 87.500 C 407.908 73.200, 409.397 60.198, 409.793 58.606 C 410.385 56.231, 412.147 61.067, 419.631 85.606 L 428.748 115.500 439.614 115.500 L 450.480 115.500 458.186 87 C 462.425 71.325, 466.035 57.827, 466.209 57.005 C 466.383 56.183, 468.009 68.758, 469.823 84.948 C 471.637 101.139, 473.345 114.750, 473.619 115.193 C 473.894 115.637, 479.266 116, 485.559 116 C 495.777 116, 497.003 115.813, 497.031 114.250 C 497.048 113.287, 494.467 94.149, 491.295 71.719 L 485.527 30.939 474.565 31.219 L 463.602 31.500 454.087 62.236 C 448.853 79.140, 444.267 92.640, 443.894 92.236 C 443.387 91.685, 431.755 54.306, 425.383 32.750 C 424.931 31.222, 423.482 31, 413.952 31 C 403.450 31, 403.019 31.085, 402.534 33.250 M 159.008 47.257 C 155.579 48.407, 146.576 56.563, 144.389 60.500 C 143.156 62.721, 143.986 63.695, 136.739 51.520 C 134.152 47.175, 133.740 46.900, 130.239 47.190 L 126.500 47.500 126.500 81.500 L 126.500 115.500 136.500 115.500 L 146.500 115.500 147.025 93.500 C 147.511 73.174, 147.730 71.099, 149.908 66.227 C 153.078 59.138, 156.923 56, 162.442 56 C 169.968 56, 174.021 61.291, 175.480 73.018 C 176.843 83.980, 172.039 112.169, 167.200 121.602 L 165.218 125.464 169.358 127.815 L 173.498 130.167 176.363 126.833 C 192.747 107.774, 200.354 77.893, 193.035 61.345 C 188.667 51.471, 181.511 46.795, 170.117 46.370 C 165.928 46.214, 160.928 46.613, 159.008 47.257 M 229.836 47.861 C 222.571 50.259, 218.077 53.065, 213.640 57.977 C 197.679 75.644, 202.912 102.031, 224.500 112.744 C 234.457 117.684, 246.315 118.096, 257.566 113.892 C 265.798 110.816, 274.812 101.792, 277.934 93.500 C 279.791 88.570, 280.118 86.074, 279.768 79.500 C 279.041 65.853, 272.031 55.768, 259.017 49.644 C 250.623 45.694, 238.625 44.961, 229.836 47.861 M 530.836 47.861 C 520.003 51.436, 512.870 57.734, 508.163 67.880 C 506.050 72.435, 505.551 75.020, 505.528 81.521 C 505.503 88.586, 505.889 90.331, 508.760 96.163 C 512.675 104.117, 517.967 109.140, 526.877 113.362 C 532.903 116.217, 534.356 116.494, 543 116.438 C 550.393 116.389, 553.775 115.874, 558.247 114.117 C 565.818 111.142, 574.119 103.495, 577.706 96.190 C 580.136 91.241, 580.500 89.328, 580.500 81.500 C 580.500 73.893, 580.099 71.649, 577.906 67 C 574.510 59.802, 568.333 53.782, 560.269 49.811 C 554.738 47.089, 552.451 46.558, 545.127 46.298 C 538.731 46.072, 535.035 46.476, 530.836 47.861 M 622.500 47.866 C 618.213 49.818, 611.633 56.431, 610.535 59.889 C 610.167 61.050, 609.544 62, 609.152 62 C 608.760 62, 606.769 58.625, 604.727 54.500 C 601.032 47.031, 601 47, 597.008 47 L 593 47 593 81.500 L 593 116 602.871 116 L 612.742 116 613.259 93.750 C 613.825 69.328, 614.820 63.885, 619.630 58.864 C 625.239 53.009, 632.337 56.064, 637.002 66.341 L 639.709 72.304 645.378 62.902 L 651.047 53.500 647.988 50.898 C 642.061 45.855, 630.052 44.426, 622.500 47.866 M 677.324 47.384 C 671.397 49.316, 666.877 52.325, 662.073 57.537 C 656.549 63.530, 653.864 69.937, 653.257 78.579 C 652.138 94.490, 659.590 107.199, 673.954 113.876 C 681.132 117.212, 694.483 117.550, 702.931 114.609 C 708.811 112.563, 720 102.816, 720 99.741 C 720 98.669, 718.579 97.654, 715.994 96.880 C 713.790 96.220, 711.859 95.864, 711.703 96.090 C 707.727 101.833, 704.973 104.563, 701.616 106.087 C 693.980 109.554, 685.011 108.054, 680.127 102.492 C 677.283 99.253, 674.096 91.571, 675.156 90.511 C 675.418 90.249, 677.175 90.477, 679.060 91.017 C 684.821 92.669, 698.202 92.193, 704.942 90.095 C 716.389 86.533, 722 79.841, 722 69.752 C 722 59.782, 715.064 51.284, 704.177 47.916 C 698.393 46.127, 682.169 45.805, 677.324 47.384 M 285.717 47.715 C 285.473 48.147, 289.423 63.575, 294.495 82 L 303.718 115.500 312.802 115.787 L 321.886 116.074 322.781 112.787 C 323.273 110.979, 325.647 102.210, 328.055 93.300 C 330.463 84.390, 332.674 77.338, 332.967 77.629 C 333.260 77.920, 335.532 86.559, 338.015 96.829 L 342.530 115.500 351.209 115.788 C 358.708 116.037, 360.017 115.833, 360.828 114.288 C 361.939 112.173, 381 49.586, 381 48.052 C 381 47.424, 378.393 47, 374.535 47 C 369.391 47, 367.885 47.357, 367.162 48.750 C 366.662 49.712, 364.059 60.062, 361.377 71.748 C 358.695 83.435, 356.258 92.997, 355.962 92.998 C 355.666 92.999, 352.963 82.763, 349.954 70.250 L 344.483 47.500 335.732 47.211 C 327.339 46.934, 326.944 47.018, 326.085 49.276 C 325.593 50.570, 323.545 59.925, 321.534 70.065 C 319.523 80.204, 317.603 89.400, 317.269 90.500 C 316.892 91.738, 314.513 83.926, 311.024 70 L 305.388 47.500 295.775 47.215 C 290.488 47.058, 285.962 47.283, 285.717 47.715 M 237.500 55.493 C 229.555 58.331, 225.510 67.104, 225.510 81.500 C 225.510 93.125, 227.649 99.546, 233.185 104.549 C 237.071 108.059, 237.512 108.203, 243.112 107.798 C 247.550 107.477, 249.616 106.783, 251.622 104.937 C 257.376 99.645, 260.368 87.026, 258.853 74.444 C 257.072 59.649, 248.117 51.701, 237.500 55.493 M 538.741 55.429 C 533.887 57.161, 532.257 58.569, 530.050 62.933 C 522.862 77.148, 525.973 100.446, 535.835 106.250 C 540.062 108.738, 546.932 108.512, 551.102 105.749 C 556.644 102.076, 559.380 95.230, 559.835 83.891 C 560.474 67.986, 555.845 57.440, 547.168 55.030 C 542.767 53.807, 543.365 53.779, 538.741 55.429 M 684.389 56.905 C 678.506 60.492, 674 69.854, 674 78.490 C 674 82.793, 674.098 82.930, 677.750 83.679 C 679.813 84.102, 684.650 84.431, 688.500 84.411 C 700.424 84.347, 705.477 80.073, 705.454 70.069 C 705.439 63.380, 703.003 58.704, 698.393 56.516 C 694.044 54.453, 688.141 54.616, 684.389 56.905" stroke="none" fill="#000000" fill-rule="evenodd"/>
</svg>