<svg xmlns="http://www.w3.org/2000/svg" width="1241" height="328" viewBox="0 0 1241 328" version="1.1">
	<path d="M 112 94.500 L 112 164 126.500 164 L 141 164 141 147.055 L 141 130.111 147.682 126.109 C 151.357 123.908, 154.677 122.300, 155.058 122.536 C 155.440 122.772, 160.864 132.198, 167.112 143.482 L 178.471 164 194.761 164 L 211.051 164 209.388 160.750 C 208.473 158.963, 201.015 145.212, 192.815 130.193 L 177.905 102.886 187.203 93.105 C 196.369 83.462, 209.930 65.685, 209.976 63.250 C 209.994 62.337, 207.475 62, 200.647 62 L 191.293 62 186.488 69.250 C 176.992 83.578, 161.627 100.247, 147.500 111.546 L 141.500 116.344 141.240 70.672 L 140.980 25 126.490 25 L 112 25 112 94.500 M 643.548 38.224 C 643.323 38.926, 638.601 66.500, 633.054 99.500 C 627.507 132.500, 622.742 160.512, 622.465 161.750 C 621.967 163.976, 622.079 164, 632.785 164 L 643.608 164 647.895 122.250 C 650.253 99.287, 652.509 78.250, 652.909 75.500 L 653.636 70.500 656.795 80.500 C 658.532 86, 665.008 107.048, 671.187 127.274 L 682.422 164.048 698.461 163.774 L 714.500 163.500 726.491 118.824 C 733.086 94.252, 738.711 74.377, 738.991 74.656 C 739.271 74.935, 741.750 95.039, 744.500 119.332 L 749.500 163.500 767.366 163.774 L 785.231 164.047 784.649 160.774 C 784.328 158.973, 780.444 131.625, 776.017 100 C 771.590 68.375, 767.715 41.262, 767.405 39.750 L 766.841 37 751.084 37 L 735.326 37 720.452 84.955 C 712.270 111.330, 705.337 132.670, 705.044 132.378 C 704.751 132.085, 697.984 110.618, 690.006 84.673 L 675.500 37.500 659.728 37.224 C 647.629 37.013, 643.862 37.246, 643.548 38.224 M 278.500 61.402 C 268.366 64.615, 259.512 71.789, 254.863 80.552 C 253.565 82.999, 252.137 84.879, 251.691 84.730 C 251.244 84.581, 248.036 79.519, 244.561 73.480 L 238.244 62.500 232.622 62.200 L 227 61.900 227 112.950 L 227 164 241.937 164 L 256.875 164 257.228 131.750 C 257.563 101.271, 257.705 99.171, 259.823 93.501 C 265.559 78.142, 275.313 71.308, 286.315 74.939 C 291.169 76.541, 296.544 82.795, 298.564 89.190 C 301.086 97.176, 301.543 116.061, 299.558 130.317 C 297.011 148.608, 293.268 162.301, 286.327 178.715 C 286.018 179.444, 288.090 181.043, 291.511 182.715 L 297.210 185.500 301.768 180.500 C 311.101 170.262, 319.838 154.514, 324.793 139 C 329.011 125.791, 330.295 118.180, 330.360 106 C 330.488 81.978, 320.379 66.459, 301.380 61.511 C 294.437 59.702, 284.017 59.653, 278.500 61.402 M 387.500 61.419 C 375.847 64.124, 367.105 69.037, 358.610 77.653 C 349.074 87.326, 344.590 98.859, 344.672 113.500 C 344.775 131.866, 352.989 146.573, 368.879 156.843 C 378.452 163.031, 387.472 165.500, 400.500 165.500 C 413.225 165.500, 418.422 164.286, 429.113 158.815 C 437.959 154.289, 444.506 148.379, 449.873 140.076 C 459.732 124.822, 459.965 102.741, 450.439 86.486 C 444.767 76.807, 432.198 67.101, 420 62.980 C 411.714 60.180, 396.072 59.429, 387.500 61.419 M 839.202 62.022 C 828.774 64.754, 820.480 69.474, 812.927 76.973 C 802.842 86.988, 798.024 98.634, 798.024 113 C 798.024 127.366, 802.842 139.012, 812.927 149.027 C 835.649 171.588, 873.566 171.593, 896 149.036 C 921.142 123.756, 913.884 82.406, 881.500 66.428 C 868.530 60.029, 852.990 58.410, 839.202 62.022 M 976.404 61.827 C 973.601 62.796, 969.368 65.125, 966.998 67.002 C 962.857 70.281, 955.772 79.993, 954.425 84.235 C 953.917 85.836, 952.403 83.680, 947.330 74.135 L 940.880 62 935.440 62 L 930 62 930 113 L 930 164 945 164 L 960 164 960 133.958 C 960 100.790, 960.942 92.642, 965.832 83.528 C 971.744 72.510, 981.901 70.897, 990.183 79.661 C 992.864 82.497, 998.998 94.387, 998.999 96.750 C 999 97.438, 999.337 97.990, 999.750 97.979 C 1000.374 97.961, 1014.739 74.584, 1015.853 71.774 C 1016.436 70.303, 1012.783 66.926, 1008 64.516 C 998.750 59.855, 985.396 58.719, 976.404 61.827 M 1064 60.622 C 1043.967 64.520, 1028.673 77.675, 1022.870 96 C 1019.739 105.884, 1019.917 121.149, 1023.273 130.764 C 1027.967 144.209, 1035.714 153.371, 1047.865 159.847 C 1066.702 169.887, 1094.869 167.077, 1110.630 153.585 C 1114.212 150.519, 1121 141.452, 1121 139.734 C 1121 139.139, 1110.616 135, 1109.123 135 C 1108.682 135, 1107.809 136.124, 1107.183 137.498 C 1105.218 141.810, 1098.102 148.729, 1093.204 151.090 C 1086.023 154.552, 1075.328 154.398, 1067.850 150.725 C 1059.994 146.867, 1054.311 138.766, 1052.480 128.814 L 1051.802 125.129 1057.151 126.551 C 1065.400 128.745, 1079.437 129.399, 1088.500 128.013 C 1099.316 126.358, 1108.004 122.701, 1114.068 117.249 C 1121.610 110.468, 1123.474 106.264, 1123.488 96 C 1123.498 88.715, 1123.103 86.691, 1120.720 81.839 C 1116.136 72.504, 1107.357 66.059, 1094.446 62.548 C 1088.537 60.941, 1068.781 59.692, 1064 60.622 M 466.817 62.516 C 466.421 62.912, 486.860 139.243, 492.987 160.250 L 494.080 164 507.384 164 L 520.688 164 529.031 133.388 C 534.175 114.511, 537.618 103.490, 538.012 104.638 C 538.363 105.662, 541.767 119.448, 545.575 135.274 L 552.500 164.048 565.969 163.774 L 579.438 163.500 594.164 115 C 602.264 88.325, 609.153 65.472, 609.473 64.215 C 610.055 61.932, 610.046 61.930, 599.778 62.215 L 589.500 62.500 581.035 98.702 C 576.380 118.613, 572.452 134.786, 572.308 134.641 C 572.163 134.497, 568.168 118.433, 563.430 98.944 C 558.691 79.454, 554.604 63.169, 554.348 62.754 C 553.940 62.095, 528.061 61.600, 527.962 62.250 C 527.941 62.388, 524.638 78.475, 520.621 98 L 513.318 133.500 504.543 97.750 L 495.768 62 481.551 62 C 473.731 62, 467.101 62.232, 466.817 62.516 M 394.563 72.674 C 381.258 76.413, 372.857 97.227, 375.158 120.750 C 377.283 142.475, 387.760 154.909, 403.010 153.806 C 418.155 152.710, 427 137.666, 427 113 C 427 94.885, 422.214 81.882, 413.229 75.585 C 409.748 73.145, 407.808 72.549, 402.729 72.361 C 399.303 72.234, 395.629 72.375, 394.563 72.674 M 845.491 73.865 C 840.647 76.066, 835.465 81.750, 832.946 87.625 C 830.376 93.621, 828 105.749, 828 112.870 C 828 120.387, 830.325 132.685, 832.806 138.295 C 840.354 155.358, 859.375 159.325, 871.129 146.287 C 884.288 131.691, 883.990 93.108, 870.607 78.703 C 864.747 72.396, 853.496 70.229, 845.491 73.865 M 1068.491 74.865 C 1058.732 79.299, 1051 94.888, 1051 110.131 C 1051 116.719, 1050.597 116.490, 1064.662 117.908 C 1081.374 119.593, 1092.826 116.007, 1097.241 107.707 C 1099.029 104.346, 1099.478 101.871, 1099.476 95.400 C 1099.473 88.153, 1099.158 86.791, 1096.486 82.477 C 1092.469 75.990, 1086.796 72.992, 1078.593 73.022 C 1074.877 73.035, 1070.936 73.754, 1068.491 74.865 M 310.599 240.250 C 310.299 243.137, 309.770 255.063, 309.423 266.750 L 308.792 288 311.432 288 L 314.072 288 313.555 279.250 C 313.271 274.438, 312.786 264.425, 312.477 257 C 311.923 243.685, 311.941 243.527, 313.827 245.500 C 314.878 246.600, 323.546 256.950, 333.090 268.500 L 350.441 289.500 351.093 285.500 C 351.451 283.300, 352.051 271.262, 352.425 258.750 L 353.107 236 350.517 236 L 347.926 236 348.483 249.250 C 348.788 256.538, 349.271 266.438, 349.555 271.250 C 349.839 276.063, 349.718 279.980, 349.286 279.955 C 348.854 279.930, 340.187 269.805, 330.027 257.455 C 319.866 245.105, 311.461 235, 311.349 235 C 311.236 235, 310.899 237.363, 310.599 240.250 M 396.596 251.750 C 396.256 260.962, 395.722 272.887, 395.409 278.250 L 394.840 288 397.462 288 L 400.085 288 399.387 265.750 L 398.689 243.500 411.104 258.500 C 417.932 266.750, 426.387 276.988, 429.894 281.250 C 433.400 285.512, 436.587 289, 436.977 289 C 437.686 289, 439 259.994, 439 244.340 C 439 236.467, 438.879 236, 436.846 236 L 434.691 236 435.388 258 C 435.771 270.100, 435.872 280, 435.611 280 C 435.351 280, 426.756 269.875, 416.511 257.500 C 406.266 245.125, 397.733 235, 397.548 235 C 397.364 235, 396.935 242.537, 396.596 251.750 M 471.500 237.484 C 453.230 244.902, 448.452 267.298, 462.205 281.051 C 470.747 289.594, 485.930 291.908, 496.842 286.331 L 502.500 283.440 502.784 272.720 L 503.068 262 493.534 262 C 487.845 262, 484 262.403, 484 263 C 484 263.571, 487 264, 491 264 L 498 264 498 273.886 L 498 283.772 494.250 285.613 C 488.706 288.335, 477.802 288.127, 472.237 285.193 C 467.253 282.566, 462.455 276.396, 460.886 270.596 C 458.326 261.137, 461.330 248.809, 467.658 242.803 C 474.249 236.548, 486.709 234.999, 495.331 239.364 L 500 241.728 500 239.502 C 500 237.597, 499.184 237.112, 494.333 236.138 C 485.352 234.334, 478.221 234.755, 471.500 237.484 M 540.997 242.750 C 540.996 247.012, 540.699 258.938, 540.339 269.250 L 539.684 288 542.317 288 C 544.627 288, 544.897 287.662, 544.522 285.250 C 543.834 280.836, 542.879 245, 543.449 245 C 543.735 245, 548.482 251.750, 554 260 C 559.518 268.250, 564.587 275, 565.266 274.999 C 565.945 274.999, 570.550 267.237, 575.500 257.749 L 584.500 240.500 584.768 264.250 L 585.036 288 587.518 288 L 590 288 590 261.934 L 590 235.867 587.250 236.184 C 584.799 236.466, 583.577 238.262, 576 252.721 C 571.325 261.643, 567.250 269.168, 566.943 269.445 C 566.637 269.721, 561.112 262.084, 554.666 252.473 C 548.220 242.863, 542.508 235, 541.973 235 C 541.426 235, 540.999 238.396, 540.997 242.750 M 659.630 246.134 C 659.310 252.385, 658.778 264.363, 658.450 272.750 L 657.851 288 660.469 288 L 663.086 288 662.504 269.750 C 662.185 259.712, 661.705 249.779, 661.438 247.676 C 661.156 245.452, 661.342 244.093, 661.883 244.427 C 662.394 244.743, 670.997 254.902, 681.001 267.001 C 691.005 279.100, 699.597 289, 700.095 289 C 700.593 289, 701.001 285.512, 701.003 281.250 C 701.004 276.988, 701.301 265.063, 701.661 254.750 L 702.316 236 699.649 236 C 697.038 236, 696.992 236.109, 697.464 241.250 C 698.269 250.027, 699.128 280, 698.574 280 C 698.289 280, 690.336 270.663, 680.900 259.250 C 671.465 247.838, 662.950 237.660, 661.979 236.634 C 660.282 234.842, 660.189 235.220, 659.630 246.134 M 784.594 236.577 C 778.210 238.626, 768.951 247.702, 767.211 253.616 C 764.137 264.064, 767.056 275.330, 774.541 281.902 C 780.466 287.104, 785.996 289.133, 794.492 289.221 C 802.377 289.303, 806.561 288.107, 811.750 284.289 L 815 281.898 815 271.949 L 815 262 805.500 262 C 799.833 262, 796 262.404, 796 263 C 796 263.571, 799 264, 803 264 L 810 264 810 273.515 L 810 283.029 806.816 284.966 C 798.766 289.861, 785.441 288.115, 778.794 281.293 C 773.625 275.989, 771.716 270.894, 771.689 262.336 C 771.660 252.977, 775.382 244.966, 781.835 240.500 C 785.836 237.731, 786.837 237.500, 794.835 237.500 C 801.868 237.500, 804.301 237.921, 807.750 239.734 C 811.931 241.932, 812 241.935, 812 239.959 C 812 237.172, 808.168 235.931, 798 235.425 C 792.004 235.127, 788.055 235.467, 784.594 236.577 M 871.634 239.004 C 871.324 241.477, 870.789 253.512, 870.444 265.750 L 869.817 288 872.429 288 L 875.040 288 874.537 278.750 C 873.384 257.537, 872.973 245, 873.432 245 C 873.701 245, 878.471 251.750, 884.033 260 C 889.594 268.250, 894.713 275, 895.407 275 C 896.101 275, 900.681 267.301, 905.585 257.891 L 914.500 240.783 914.768 264.391 L 915.036 288 917.518 288 L 920 288 920 261.934 L 920 235.867 917.330 236.184 C 914.971 236.463, 913.662 238.446, 906.080 253.227 C 901.361 262.427, 897.275 269.955, 897 269.956 C 896.725 269.957, 892.115 263.330, 886.756 255.229 C 881.396 247.128, 875.928 239.152, 874.604 237.504 L 872.196 234.508 871.634 239.004 M 979 243.256 C 979 247.889, 978.704 259.852, 978.342 269.840 L 977.684 288 980.354 288 C 982.856 288, 982.994 287.765, 982.550 284.250 C 981.941 279.425, 980.804 244, 981.258 244 C 981.447 244, 990.129 254.323, 1000.551 266.940 L 1019.500 289.879 1020.124 282.190 C 1020.466 277.960, 1021.030 265.837, 1021.376 255.250 L 1022.006 236 1019.460 236 L 1016.914 236 1017.496 254.250 C 1017.815 264.288, 1018.297 274.229, 1018.565 276.342 C 1018.841 278.512, 1018.646 280.035, 1018.119 279.842 C 1017.605 279.654, 1009.001 269.600, 999 257.500 C 988.999 245.400, 980.407 235.350, 979.908 235.167 C 979.408 234.983, 979 238.624, 979 243.256 M 139 262 L 139 288 150 288 C 159.495 288, 161 287.777, 161 286.372 C 161 285.058, 160.279 284.853, 157.250 285.309 C 155.188 285.619, 151.363 286.178, 148.750 286.550 L 144 287.227 144 261.614 L 144 236 141.500 236 L 139 236 139 262 M 173 262 L 173 288 184.500 288 C 194.409 288, 196 287.777, 196 286.389 C 196 285.123, 195.303 284.897, 192.750 285.336 C 190.963 285.643, 186.912 286.195, 183.750 286.562 L 178 287.230 178 274.474 L 178 261.718 186.500 262.248 C 193.342 262.675, 195 262.508, 195 261.389 C 195 260.313, 193.088 260, 186.500 260 L 178 260 178 249.167 C 178 243.208, 178.225 238.108, 178.500 237.833 C 178.775 237.558, 182.825 237.846, 187.500 238.473 C 195.451 239.539, 196 239.496, 196 237.807 C 196 236.169, 194.923 236, 184.500 236 L 173 236 173 262 M 215.095 260.731 C 209.922 274.354, 205.473 286.098, 205.208 286.830 C 204.863 287.778, 205.531 288.065, 207.539 287.830 C 210.205 287.517, 210.542 286.880, 213.927 275.758 L 217.500 264.015 226.163 264.008 L 234.825 264 237.562 271.250 C 243.944 288.158, 243.579 287.479, 246.467 287.825 C 249.733 288.216, 250.583 291.217, 238.720 260.500 C 226.184 228.041, 227.512 228.028, 215.095 260.731 M 262 262 L 262 288 264.500 288 L 267 288 267 263 L 267 238 272.077 238 C 276.355 238, 277.614 238.460, 280.077 240.923 C 282.363 243.209, 283 244.745, 283 247.973 C 283 254.407, 280.716 257.816, 275.466 259.220 L 270.996 260.416 275.221 261.976 C 280.251 263.834, 283.032 267.581, 286 276.499 C 288.959 285.393, 291.214 288.017, 295.823 287.932 C 299.152 287.871, 299.291 287.764, 297.298 286.801 C 295.215 285.795, 291.027 278.481, 290.977 275.761 C 290.917 272.518, 285.273 264.426, 281.664 262.406 L 277.828 260.260 280.499 259.590 C 287.901 257.732, 290.677 247.335, 285.436 241.106 C 282.336 237.422, 277.725 236.013, 268.750 236.006 L 262 236 262 262 M 372 262 L 372 288 374.500 288 L 377 288 377 262 L 377 236 374.500 236 L 372 236 372 262 M 620.918 238.750 C 618.485 245.235, 605.605 278.909, 603.897 283.250 L 602.029 288 604.795 288 C 607.456 288, 607.704 287.542, 611.307 275.961 L 615.053 263.923 623.744 264.211 L 632.436 264.500 636.846 276.250 C 640.772 286.707, 641.518 288, 643.629 288 C 644.933 288, 646.007 287.663, 646.016 287.250 C 646.026 286.837, 641.678 275.137, 636.356 261.250 C 627.483 238.099, 626.482 236, 624.315 236 C 622.652 236, 621.644 236.816, 620.918 238.750 M 729.653 245.250 C 727.698 250.338, 723.206 262.038, 719.669 271.250 L 713.239 288 715.956 288 C 718.552 288, 718.838 287.470, 722.418 276 L 726.163 264 734.832 264.011 L 743.500 264.022 747.954 276.011 C 752.219 287.490, 752.530 288, 755.263 288 C 756.833 288, 757.912 287.663, 757.660 287.250 C 757.408 286.837, 753.054 275.700, 747.985 262.500 C 742.915 249.300, 738.547 237.938, 738.277 237.250 C 738.007 236.563, 736.756 236, 735.496 236 C 733.531 236, 732.703 237.311, 729.653 245.250 M 832 262 L 832 288 843.500 288 C 853.457 288, 855 287.782, 855 286.372 C 855 285.055, 854.285 284.855, 851.250 285.324 C 849.188 285.643, 845.138 286.209, 842.250 286.581 L 837 287.258 837 274.480 L 837 261.703 845.500 262.303 C 853.070 262.837, 854 262.717, 854.002 261.201 C 854.004 259.707, 852.968 259.539, 845.502 259.823 L 837 260.147 837 248.967 L 837 237.788 846 238.500 C 853.893 239.125, 855 239.015, 855 237.606 C 855 236.224, 853.393 236, 843.500 236 L 832 236 832 262 M 940 262 L 940 288 951.500 288 C 961.415 288, 963 287.778, 963 286.386 C 963 285.037, 962.223 284.879, 958.250 285.424 C 955.638 285.782, 951.587 286.334, 949.250 286.651 L 945 287.227 945 274.465 L 945 261.703 953.500 262.303 C 961.070 262.837, 962 262.717, 962.002 261.201 C 962.004 259.707, 960.968 259.539, 953.502 259.823 L 945 260.147 945 248.753 L 945 237.359 950.250 238.106 C 959.112 239.368, 963 239.184, 963 237.500 C 963 236.254, 961.056 236, 951.500 236 L 940 236 940 262 M 1033 237.937 C 1033 239.553, 1033.539 239.796, 1036.250 239.402 C 1046.257 237.949, 1052.056 237.389, 1052.499 237.832 C 1052.775 238.108, 1053 249.508, 1053 263.167 C 1053 287.333, 1053.054 288, 1055 288 C 1056.946 288, 1057 287.333, 1057 263.167 C 1057 249.508, 1057.225 238.108, 1057.501 237.832 C 1057.944 237.389, 1063.743 237.949, 1073.750 239.402 C 1076.461 239.796, 1077 239.553, 1077 237.937 C 1077 236.080, 1076.095 236, 1055 236 C 1033.905 236, 1033 236.080, 1033 237.937 M 222.038 250 C 220.247 255.775, 218.579 260.837, 218.332 261.250 C 218.084 261.663, 221.497 262, 225.916 262 L 233.950 262 231.086 254.250 C 229.511 249.988, 227.564 244.925, 226.759 243 L 225.295 239.500 222.038 250 M 619.598 249.272 C 618.033 254.347, 616.531 259.288, 616.260 260.250 C 615.821 261.807, 616.608 262, 623.383 262 C 627.573 262, 631 261.685, 631 261.300 C 631 260.248, 623.807 241.612, 623.077 240.772 C 622.729 240.372, 621.163 244.197, 619.598 249.272 M 730.503 250.250 C 728.957 255.338, 727.488 260.063, 727.239 260.750 C 726.902 261.680, 728.733 262, 734.393 262 C 738.577 262, 742 261.602, 742 261.115 C 742 259.369, 734.714 241, 734.022 241 C 733.633 241, 732.050 245.162, 730.503 250.250" stroke="none" fill="#000000" fill-rule="evenodd"/>
</svg>